<svg width="148" height="64" viewBox="0 0 148 64" fill="none" xmlns="http://www.w3.org/2000/svg">
<g clip-path="url(#clip0_553_1072)">
<path d="M129.473 6.71404C130.328 6.71404 131.022 6.01816 131.022 5.15975C131.022 4.30135 130.328 3.60547 129.473 3.60547C128.617 3.60547 127.924 4.30135 127.924 5.15975C127.924 6.01816 128.617 6.71404 129.473 6.71404Z" fill="white"/>
<path fill-rule="evenodd" clip-rule="evenodd" d="M129.527 3.8781L129.451 3.90095L129.406 3.93143L129.322 3.9619H129.193L129.148 4.02286L129.087 4.14476L129.034 4.22857L128.981 4.31238L128.95 4.38095L128.912 4.44191L128.882 4.48H128.821V4.57143L128.806 4.64762L128.791 4.69333H128.723L128.707 4.73143L128.677 4.81524L128.662 4.93714L128.624 5.02095L128.586 5.15048L128.616 5.29524L128.692 5.37905L128.753 5.47048L128.836 5.54667L128.912 5.64571L128.95 5.74476V5.83619L128.92 5.91238L128.966 5.9581L129.041 5.92L129.148 5.89714H129.239L129.277 5.92762L129.322 5.99619L129.36 6.01905C129.383 5.97333 129.391 5.92762 129.391 5.92762L129.436 5.88952L129.535 5.86667L129.611 5.83619L129.694 5.79048L129.763 5.76762L129.846 5.74476L129.892 5.71429L129.937 5.75238L129.975 5.79048L130.029 5.83619L130.089 5.74476L130.104 5.66857V5.55429V5.46286V5.19619L130.135 5.12762L130.165 5.03619L130.196 4.96L130.211 4.85333L130.241 4.72381V4.60952L130.173 4.52571L130.135 4.41143L130.12 4.32762V4.25143L130.104 4.19048L130.044 4.17524H129.975L129.93 4.09143L129.884 4.04571L129.839 4.00762L129.793 3.93905L129.748 3.90095H129.702L129.649 3.88571H129.603L129.543 3.8781H129.527ZM126.475 3.49714L126.422 3.72571L126.369 3.96952L126.354 4.23619L126.323 4.54857L126.308 4.81524V5.02857L126.323 5.27238L126.308 5.55429V5.82095L126.354 6.01905L126.422 6.33143L126.437 6.5981H126.505V6.13333L126.475 5.92L126.46 5.69143L126.475 5.37905L126.445 5.18095V4.91429L126.43 4.5181L126.445 4.23619L126.475 4.00762V3.80952L126.505 3.66476L126.475 3.49714ZM132.595 4.51048L132.557 4.55619L132.542 4.69333L132.58 4.77714L132.633 4.83048L132.716 4.90667H132.777L132.83 4.81524L132.853 4.69333L132.808 4.60952L132.732 4.54095L132.678 4.52571L132.587 4.51048H132.595ZM133.817 11.0476L133.741 11.0781V11.1695L133.802 11.2152H133.878L133.962 11.1695L133.931 11.101L133.886 11.0552H133.817V11.0476ZM133.415 10.8724L133.369 10.8495H133.316L133.24 10.8724L133.157 10.8876V10.9486L133.172 11.0324L133.24 11.0629H133.309L133.377 11.0552L133.445 11.0857L133.521 11.1086L133.574 11.0476V10.9562L133.529 10.9105L133.461 10.8952L133.415 10.8724ZM138.381 8.83048L138.312 8.86095L138.267 8.92952L138.244 8.96762H138.198H138.153L138.115 8.98286L138.085 9.02857L138.069 9.10476L138.107 9.18095L138.161 9.21905H138.229L138.274 9.13524H138.366L138.441 9.12762L138.51 9.10476L138.586 9.08191L138.631 9.03619L138.586 8.97524L138.54 8.93714L138.502 8.90667L138.457 8.86857L138.411 8.8381H138.366L138.381 8.83048ZM138.077 10.941H138.031H137.986H137.933L137.88 10.9562H137.842L137.819 11.0019L137.864 11.0476H137.948L138.001 11.04H138.085L138.123 11.0019V10.9562L138.077 10.941ZM140.552 9.79048L140.529 9.86667L140.545 9.93524L140.583 9.99619L140.636 10.019L140.719 9.97333V9.88952L140.704 9.81333L140.643 9.77524L140.552 9.79809V9.79048ZM144.508 8.91429L144.394 8.97524L144.273 9.11238L144.106 9.24952L143.954 9.40952L143.832 9.48571L143.756 9.5619L143.665 9.62286L143.62 9.71429L143.567 9.76L143.491 9.78286L143.415 9.80571L143.339 9.86667L143.293 9.93524L143.24 9.99619L143.187 10.0343L143.149 10.0724L143.065 10.1867L142.997 10.2095L142.959 10.2552L142.929 10.3314L142.883 10.3695L142.838 10.4457L142.807 10.5448L142.883 10.5219L143.012 10.3848L143.141 10.301L143.248 10.2171L143.392 10.1257L143.468 10.0876L143.521 9.98095L143.597 9.94286L143.643 9.86667L143.703 9.84381H143.749L143.764 9.77524L143.81 9.67619L143.863 9.61524L143.954 9.54667L144.045 9.47048L144.128 9.38667L144.189 9.30286L144.288 9.21143L144.379 9.12762L144.425 9.08191L144.478 9.02095V8.90667L144.508 8.91429ZM140.4 6.01143L140.362 6.04952L140.347 6.14095L140.309 6.17905L140.264 6.20191L140.195 6.18667L140.135 6.14095L140.097 6.16381L140.081 6.23238V6.32381V6.38476V6.47619L140.142 6.44571L140.195 6.35429L140.241 6.32381H140.309L140.378 6.33143L140.423 6.28571L140.454 6.20191V6.10286L140.423 6.0419L140.378 6.01905L140.4 6.01143ZM141.547 4.98286L141.456 5.00571L141.372 5.08952L141.357 5.16571V5.25714L141.425 5.32571H141.479L141.547 5.30286L141.592 5.21143L141.623 5.12762V5.03619L141.539 4.99048L141.547 4.98286ZM145.875 2.82667L145.761 2.79619H145.655L145.548 2.82667L145.45 2.84952L145.343 2.88L145.275 2.89524H145.214L145.169 2.91048L145.078 2.94857L145.062 3.05524L145.131 3.04L145.26 3.02476H145.374C145.419 3.02476 145.488 3.06286 145.488 3.06286L145.586 3.08571L145.655 3.10095L145.738 3.13143L145.837 3.1619L145.92 3.14667L145.951 3.03238V2.92571L145.875 2.81143V2.82667ZM130.34 2.72L130.211 2.75048L130.12 2.81143L130.089 2.89524L130.067 2.97905L130.021 3.01714L129.998 3.06286V3.14667L130.051 3.16952L130.135 3.15429L130.18 3.09333L130.241 3.03238H130.302L130.325 2.97143V2.86476V2.79619V2.70476L130.34 2.72ZM122.793 1.33333L123.127 1.21905H123.408L123.856 1.08952L124.258 0.975238L124.607 0.929524L125.025 0.845714L125.404 0.731429L125.708 0.632381L125.989 0.601905L126.407 0.632381L126.741 0.617143L127.12 0.601905H127.371L127.47 0.487619C127.523 0.388571 127.568 0.289524 127.622 0.190476C127.698 0.16 127.773 0.137143 127.842 0.106667H128.146C128.305 0.0838095 128.464 0.0609524 128.616 0.0380952C128.738 0.0304762 128.836 0.0228571 128.958 0.0152381C129.019 0.0152381 129.102 0.0304762 129.163 0.0304762C129.345 0.0914286 129.527 0.129524 129.71 0.190476C129.93 0.281905 130.15 0.380952 130.363 0.472381C130.492 0.518095 130.606 0.586667 130.735 0.632381C130.894 0.777143 131.069 0.906667 131.228 1.05143C131.319 1.14286 131.41 1.2419 131.509 1.33333C131.661 1.50095 131.813 1.67619 131.972 1.84381C132.041 1.94286 132.109 2.0419 132.185 2.14095C132.284 2.25524 132.382 2.36952 132.481 2.48381L132.747 2.79619L133.051 3.13905L133.271 3.38286L133.605 3.74857L133.939 4.11429L134.174 4.39619L134.44 4.64L134.637 4.80762C134.637 4.80762 134.774 4.87619 134.85 4.89143C134.918 4.90667 135.085 4.93714 135.085 4.93714L135.252 4.90667L135.435 4.73905L135.685 4.55619L135.905 4.38857L135.974 4.33524L136.308 4.10667L136.695 3.8781L137.029 3.69524L137.378 3.51238L137.766 3.31429L138.031 3.18476L138.335 3.01714L138.867 2.75048L139.337 2.50667L139.937 2.19429L140.552 1.96571L141.122 1.7219L141.592 1.50857L142.078 1.34095L142.549 1.1581L143.195 0.990476L143.764 0.807619L144.447 0.609524L144.964 0.48L145.609 0.281905L145.974 0.182857L146.573 0.0990476L147.059 0.0685714L147.393 0L147.614 0.281905L147.75 0.56381L147.781 1.98095L147.811 2.47619L147.925 2.70476L147.978 3.4819L147.963 4.00762L147.849 4.28952L147.598 4.71619L147.401 5.14286L147.219 5.44L146.983 5.90476L146.801 6.41524L146.535 6.85714L146.422 7.26857L146.376 7.71048L146.224 8.0381L146.087 8.32L145.92 8.26667L145.875 8.15238L145.639 8.53333L145.488 8.91429L145.305 9.18095L145.252 9.4781V9.76L145.116 9.82857L144.895 10.0267L144.759 10.2248V10.5371L144.607 10.6362L144.387 10.6057L144.22 10.6743L144.053 10.8419L143.802 10.9714L143.62 11.1162L143.422 11.1314L143.377 11.36L143.293 11.5733L143.058 11.7867L142.823 11.9695L142.61 12.1143L142.39 12.2133L142.192 12.2819L142.04 12.3657H141.805L141.539 12.419L141.357 12.6019L141.144 12.7162L141.008 12.8838L140.772 12.9829L140.454 13.1657L140.188 13.2495L139.839 13.3486L139.641 13.4171L139.527 13.501L139.459 13.6457L139.307 13.6914L139.11 13.6762H138.958L138.776 13.7067L138.54 13.821L138.274 13.92L138.024 14.0495L137.705 14.1486L137.485 14.2324L137.318 14.2476L137.181 14.3162H136.999L136.915 14.3848L136.9 14.7505L136.946 15.1162L136.961 15.4971L137.006 15.84L137.037 16.2819V16.4952L137.09 16.8229V16.9676L137.135 17.28L137.166 17.5086L137.348 17.5238L137.614 17.5924L137.864 17.8057L138.168 18.1486L138.502 18.4914L138.806 18.8571L139.223 19.2L139.588 19.5124L139.892 19.8095L140.279 20.0914L140.347 20.3352L140.332 20.7771V21.0743L140.249 21.1886L139.816 20.96L139.413 20.6476L139.026 20.2362L138.624 19.9238L138.206 19.5276L137.887 19.1314L137.637 18.8495L137.485 18.6057L137.371 18.4762L137.272 18.5067L137.204 18.819L136.968 19.0324L136.65 19.261L136.399 19.6038L136.05 19.9848L135.746 20.4267L135.48 20.7238L135.268 20.9219L135.07 21.1352L134.903 21.219L134.653 21.0362L134.501 20.8381L134.455 20.6095C134.455 20.6095 134.554 20.3124 134.607 20.2286C134.66 20.1448 134.858 19.8019 134.858 19.8019L135.154 19.421C135.154 19.421 135.366 19.139 135.45 19.0781C135.533 19.0095 135.754 18.7657 135.754 18.7657L136.004 18.5219L136.202 18.2552L136.353 18.0267L136.437 17.8438L136.49 17.28L136.475 16.8686L136.445 16.4267L136.308 16.2133V14.6819L136.293 14.4686H136.042L135.708 14.5829L135.427 14.5371L135.093 14.4381L134.645 14.2933L134.281 14.1105L133.984 14.0267L133.666 13.9581L133.4 13.9886L133.18 14.0343L132.846 14.08L132.466 14.0648L132.033 14.019L131.547 13.92L131.198 13.821L130.879 13.6381L130.659 13.5238L130.363 13.3943L129.983 13.2267L129.581 12.861L129.193 12.5486L128.897 12.221L128.495 11.8095L128.077 11.2686L127.675 10.7429L127.371 10.3162L127.151 9.98857L126.931 9.4781L126.665 8.86857L126.452 8.34286L126.316 7.77905L126.065 7.2381L125.982 6.82667L125.898 6.49905L125.761 6.33143L125.663 6.01905L125.647 5.60762L125.602 4.9981L125.647 4.6019L125.663 4.20571L125.731 3.90857L125.83 3.61143L125.928 3.29905L126.027 3.01714L126.156 2.67429C126.187 2.5981 126.225 2.5219 126.255 2.44571C126.293 2.38476 126.316 2.33143 126.354 2.27048C126.331 2.22476 126.3 2.17143 126.278 2.12571C126.187 2.12571 126.118 2.1181 126.035 2.1181L125.685 2.2019L125.283 2.31619L124.964 2.41524L124.547 2.49905L124.25 2.52952L123.833 2.49905L123.484 2.46857H123.104L122.937 2.4L122.77 2.18667L122.8 1.94286V1.71429L122.815 1.34857L122.793 1.33333Z" fill="#F9BE10"/>
<path d="M100.468 11.6111H97.8489V21.2416H95.9279V11.6111H93.3464V10.1406H100.468V11.6111ZM92.0024 21.2416H85.465V10.1406H91.881V11.6111H87.4012V14.7806H91.7747V16.2511H87.4012V19.7559H92.0024V21.2416ZM84.0299 10.1406L80.0817 15.4663L83.9768 21.2416H81.7065L78.4036 16.373H78.0695V21.2416H76.1334V10.1406H78.0695V14.9025H78.2366L81.7597 10.1406H84.0451H84.0299ZM71.4638 14.4682V12.6473C71.4638 11.954 71.1904 11.6111 70.6361 11.6111H68.3886V15.5197H70.6361C71.1525 15.5197 71.4258 15.1692 71.4638 14.4682ZM74.6072 21.2416H72.4432L70.2337 16.9901H68.3811V21.2416H66.4601V10.1406H71.0234C71.6688 10.1406 72.2306 10.3692 72.6938 10.8263C73.157 11.2835 73.3923 11.8168 73.3923 12.4187V14.7121C73.3923 15.1235 73.286 15.5121 73.0659 15.8778C72.8457 16.2435 72.5571 16.5254 72.1927 16.7235L74.6072 21.2416ZM61.6614 16.5787L60.4086 11.8397L59.1633 16.5787H61.6614ZM64.9339 21.2416H62.9749L62.0638 18.0492H58.7761L57.8649 21.2416H55.8984L59.0342 10.1406H61.8056L64.9415 21.2416H64.9339ZM54.3191 21.2416H52.3829V13.7673L50.6138 17.0206H49.4824L47.7133 13.7673V21.2416H45.7771V10.1406H47.6298L50.0443 14.5673L52.4588 10.1406H54.3115V21.2416H54.3191ZM37.4022 14.4682V12.6473C37.4022 11.954 37.1289 11.6111 36.5746 11.6111H34.3271V15.5197H36.5746C37.0909 15.5197 37.3642 15.1692 37.4022 14.4682ZM40.5532 21.2416H38.3893L36.1797 16.9901H34.3271V21.2416H32.4061V10.1406H36.9694C37.6148 10.1406 38.1767 10.3692 38.6398 10.8263C39.103 11.2835 39.3384 11.8168 39.3384 12.4187V14.7121C39.3384 15.1235 39.2321 15.5121 39.0119 15.8778C38.7917 16.2435 38.5032 16.5254 38.1387 16.7235L40.5532 21.2416ZM30.6597 21.2416H24.1223V10.1406H30.5383V11.6111H26.0585V14.7806H30.432V16.2511H26.0585V19.7559H30.6597V21.2416ZM22.6417 10.1406L19.483 21.2416H17.8354L14.692 10.1406H16.6281L18.6706 17.6987L20.7131 10.1406H22.6493H22.6417ZM13.6365 21.2416H9.77178V19.7559H10.7437V11.6111H9.77178V10.1406H13.6365V11.6111H12.6647V19.7559H13.6365V21.2416ZM5.51978 14.4682V12.6473C5.51978 11.954 5.24644 11.6111 4.69216 11.6111H2.44467V15.5197H4.69216C5.20848 15.5197 5.48182 15.1692 5.51978 14.4682ZM8.66323 21.2416H6.49926L4.28974 16.9901H2.43708V21.2416H0.523682V10.1406H5.08699C5.73238 10.1406 6.29425 10.3692 6.75742 10.8263C7.22058 11.2835 7.45596 11.8168 7.45596 12.4187V14.7121C7.45596 15.1235 7.34207 15.5121 7.12947 15.8778C6.90928 16.2435 6.62075 16.5254 6.25629 16.7235L8.67082 21.2416H8.66323Z" fill="white"/>
<path d="M1.96657 29.8594C1.96657 29.8594 1.32118 30.8118 0.713753 31.0251V34.6594C0.713753 34.6594 2.56641 35.4822 2.90809 35.9165L12.5586 36.1756L13.2496 37.3032L13.1129 40.3965L12.756 40.7851H0.432817L0.0759531 41.1432L-0.00756836 44.8384C-0.00756836 44.8384 1.00987 46.8499 0.994689 47.4518C0.979503 48.0537 1.26803 56.0765 1.26803 56.0765L2.30066 57.2575C2.30066 57.2575 6.56785 56.0384 10.0833 55.9089C13.6064 55.7794 18.481 55.6956 18.481 55.6956C18.481 55.6956 18.8683 55.0175 19.6731 54.6594L19.7718 50.2632L19.4833 49.9737C19.4833 49.9737 9.12664 50.4308 7.70678 50.8194L7.12213 50.2556V46.7356L7.49418 46.3165L18.5418 46.286C18.5418 46.286 18.9746 45.4251 19.3011 45.4251L19.4453 32.6175L18.3444 31.0632C18.3444 31.0632 9.5974 30.5908 1.9438 29.867L1.96657 29.8594Z" fill="white"/>
<path d="M25.8012 31.1055C25.8012 31.1055 25.4064 31.7683 24.7382 31.9283C24.7382 31.9283 24.4876 41.5588 24.6471 43.3645C24.8065 45.1626 24.8749 56.515 24.6775 57.414C24.6775 57.414 26.1808 58.054 26.2112 58.1912L27.1148 57.7036C27.1148 57.7036 27.6387 54.4198 29.5597 53.0178L30.3265 34.3893L29.7799 32.8274C29.7799 32.8274 27.3046 32.1493 25.786 31.1207L25.8012 31.1055Z" fill="white"/>
<path d="M91.6601 33.7049C91.6373 33.2859 91.3108 32.9506 90.8932 32.9125C89.9289 32.8287 88.3116 32.6383 87.9927 32.3183L77.5222 31.9297C77.5222 31.9297 76.2921 33.3545 75.6467 33.743C75.6467 33.743 76.2314 53.0649 76.1023 53.583L78.2359 55.5944C78.2359 55.5944 87.5371 54.4287 89.5417 54.6192L91.4778 54.7868L92.7686 52.6764L91.6525 33.7049H91.6601ZM86.0565 50.2154L82.4347 50.543L82.0475 50.2154L81.5919 37.1868L82.3664 36.5392L86.2464 37.1868L86.5045 49.423L86.0489 50.2154H86.0565Z" fill="white"/>
<path d="M55.512 33.7072C55.512 33.7072 54.6996 33.0977 54.4794 32.5796C54.4794 32.5796 51.3359 32.2291 50.2198 31.4062C50.2198 31.4062 49.5212 32.2748 48.8303 32.3662L48.7847 37.8139L48.0558 38.8043L43.9557 39.0024L43.1508 38.111L43.0217 33.5701C43.0217 33.5701 42.6649 33.4024 42.2321 32.6253C42.2321 32.6253 40.4402 32.9224 38.2003 31.7491C38.2003 31.7491 37.5017 32.7396 36.8108 33.0062C36.8108 33.0062 38.2307 53.5396 38.1927 53.8824L39.1798 55.4824C39.1798 55.4824 42.3688 55.1396 44.6466 55.2691C44.6466 55.2691 50.2881 55.0101 51.7535 55.2691C53.219 55.5282 54.7679 55.2691 54.7679 55.2691L55.4968 54.1415C55.4968 54.1415 55.1096 35.2539 55.4968 33.6996L55.512 33.7072ZM48.6177 50.431L44.5479 50.7586L44.1607 50.431L43.7051 44.4196L44.4796 43.772L48.8075 44.2901L49.0657 49.6386L48.6101 50.431H48.6177Z" fill="white"/>
<path d="M97.098 30.6133C97.098 30.6133 96.521 31.3219 95.5491 32.038C95.5491 32.038 97.1208 53.7219 96.8019 57.2876L98.6773 57.7219C98.6773 57.7219 99.7783 54.6285 101.585 53.2723L102.17 44.838C102.17 44.838 106.695 43.8628 107.212 44.2514L108.184 43.459L108.958 40.4876L107.599 39.3828C107.599 39.3828 103.203 40.7466 101.851 40.419C101.851 40.419 101.396 34.0038 101.851 32.7009C101.851 32.7009 101.107 31.7104 100.75 31.6799C100.393 31.6495 98.2218 31.1542 97.1056 30.6133H97.098Z" fill="white"/>
<path d="M68.6544 34.1337L67.9863 32.6251C67.9863 32.6251 65.4654 32.1528 63.8709 31.2461C63.8709 31.2461 63.5292 31.9394 62.8839 32.1528C62.8839 32.1528 63.1572 37.1356 63.4229 40.587C61.6918 40.8232 58.1991 40.328 58.1991 40.328L57.0374 41.6309L58.275 44.4423L59.133 44.9375C59.2545 45.0061 59.4063 45.0137 59.5354 44.968C60.2871 44.7166 62.7548 44.7775 63.8633 44.8156C64.2278 48.2366 64.82 56.3585 64.7061 57.1356C64.7061 57.1356 66.2551 57.6537 66.3006 57.7832L67.1586 57.2194C67.1586 57.2194 67.4168 53.9051 69.2239 52.3509L68.6468 34.1337H68.6544Z" fill="white"/>
<path d="M127.636 40.9664L128.516 40.3721H130.582C130.582 40.3721 130.923 42.5588 131.113 44.3188C131.303 46.0788 131.113 49.4921 131.113 49.4921C131.113 49.4921 133.103 48.9207 133.368 49.0731C133.634 49.2254 134.553 45.0883 135.965 43.9759C135.965 43.9759 135.699 33.3626 136.117 30.7112C136.117 30.7112 132.412 29.6369 131.918 29.0273C131.918 29.0273 131.113 29.9873 130.62 30.1397C130.62 30.1397 130.43 35.1988 130.544 36.1207C130.544 36.1207 127.681 36.1588 127.256 36.1969L127.37 31.7092C127.37 31.7092 126.337 30.9016 125.616 30.2921C125.616 30.2921 116.505 30.4445 113.832 29.835C113.832 29.835 113.126 31.1378 112.67 31.2521C112.67 31.2521 113.278 33.7054 113.361 34.6045L114.052 35.1607C114.052 35.1607 119.056 34.7035 120.012 34.9702L121.387 35.8159C121.387 35.8159 121.577 38.3454 121.387 38.5359C121.387 38.5359 118.023 39.2673 114.204 39.1073C114.204 39.1073 113.877 40.2959 113.338 40.4483L114.584 43.7473L115.7 44.1892C117.12 44.0902 120.468 43.8464 120.969 44.0064L121.971 44.6464C121.971 44.6464 122.275 49.6445 122.078 50.254H123.642C123.642 50.254 126.406 48.0902 127.309 47.6864C127.309 47.6864 127.081 41.8807 127.651 40.9588L127.636 40.9664Z" fill="white"/>
<path d="M144.021 30.1016C144.021 30.1016 141.652 29.9873 139.823 29.0273C139.823 29.0273 139.056 30.2921 138.6 30.6731C138.6 30.6731 139.709 44.4712 139.056 47.2293C139.056 47.2293 139.359 49.1493 139.359 49.835L140.506 50.254C140.506 50.254 142.571 46.094 143.596 45.2788C143.596 45.2788 143.9 40.9359 143.786 38.6731C143.672 36.4102 144.014 30.0864 144.014 30.0864L144.021 30.1016Z" fill="white"/>
<path d="M135.198 55.2825C135.085 55.1834 135.001 55.0691 134.933 54.9396C134.69 54.4749 134.34 53.4234 134.606 52.9206L131.174 50.2539C131.174 50.2539 130.741 51.092 130.081 51.5491C130.081 51.5491 127.886 56.0596 122.966 61.7053C122.883 61.9263 122.845 62.1472 122.739 62.3758L123.855 63.732L124.887 63.9987C124.887 63.9987 127.568 62.6501 129.284 61.8501L132.154 58.6272C132.154 58.6272 136.261 62.3072 136.489 63.0387C136.489 63.0387 138.995 63.5415 139.39 63.6634L140.605 63.1987C140.605 63.1987 141.44 62.4825 141.865 61.9872C141.865 61.9872 141.379 60.9587 141.349 60.7072L135.191 55.2825H135.198Z" fill="white"/>
</g>
<defs>
<clipPath id="clip0_553_1072">
<rect width="148" height="64" fill="white"/>
</clipPath>
</defs>
</svg>
