<svg width="168" height="48" viewBox="0 0 168 48" fill="none" xmlns="http://www.w3.org/2000/svg">
<rect width="168" height="40" rx="20" fill="black"/>
<path d="M16.1344 47.4534C20.7352 44.8229 20.5583 39.2478 19.7649 36.3372C19.7241 36.1874 19.8582 36.0462 20.0092 36.0826L28.7925 38.2C28.9048 38.2271 28.9705 38.3452 28.9343 38.4549C26.8438 44.7779 20.2487 47.2435 16.2485 47.8591C16.0235 47.8938 15.9368 47.5664 16.1344 47.4534Z" fill="black"/>
<path fill-rule="evenodd" clip-rule="evenodd" d="M28.731 14.6359C28.4833 14.7623 28.4833 14.3257 28.3566 14.2051C28.109 14.2051 28.132 14.4291 28.0053 14.4291C28.0053 14.8025 27.2854 15.2506 27.1587 15.624C26.5367 16.1181 26.4158 16.8591 25.9205 17.4796C25.7995 17.853 25.4252 18.1 25.4252 18.4676C25.0566 19.0881 24.3309 19.8866 23.8356 20.507C23.7089 20.3806 23.8356 20.26 23.7089 20.26C23.8356 20.1336 23.5822 19.6855 23.8356 19.5591C23.0927 19.5591 23.9624 19.1685 23.8356 18.9215H23.7089C23.7089 18.6744 23.9566 18.6744 23.9566 18.5538C23.9566 18.5538 23.8299 18.5538 23.8299 18.4274C23.8299 18.1804 24.2042 18.054 23.8299 17.9334C23.8299 17.8127 24.0775 17.8127 24.0775 17.6864C23.9508 17.6864 23.8299 17.6864 23.7032 17.5657L24.1985 17.3187L24.0718 17.1923C24.4461 17.0717 23.9451 17.0717 24.0718 16.8189C24.0718 16.6925 24.0718 16.5719 24.1985 16.5719C24.1985 16.4455 24.3194 16.4455 24.0718 16.3249L24.1985 16.1985L23.8241 16.0721C23.8241 15.9515 23.9508 16.0721 24.0718 15.9515C24.0718 15.8251 23.9451 15.8251 23.9451 15.7045C23.8184 15.5781 23.6974 15.7045 23.5707 15.8308C22.9487 15.7045 23.3 16.3249 22.6838 16.0779L22.8105 16.2042L22.6838 16.3306C22.4362 16.0836 22.1885 16.457 21.9409 16.457C21.4456 16.704 21.4859 17.5715 20.8696 17.0774C20.7429 17.0774 20.622 17.1981 20.4953 17.1981C20.3686 17.5715 20.2476 17.0774 20 17.1981C20 17.4451 20.2476 17.3244 20.1267 17.4451L20.3744 17.5715C20.3744 17.5715 20.1267 17.6921 20.2476 17.8185H20.3744L20.2476 18.0655H20.3744C20.2476 18.1861 20.5011 18.4389 20.2476 18.5596C20.622 18.8066 20.4953 19.3006 20.3744 19.674H20.5011C20.622 19.921 20.3743 20.4151 20.7487 20.6621C20.5011 20.6621 20.7487 20.7827 20.622 20.9091C20.622 20.9091 20.7487 20.9091 20.7487 21.0298L20.622 21.1561C20.7065 21.1561 20.789 21.1963 20.8696 21.2768H20.7429L20.8236 21.5238L20.9906 21.564C20.8639 21.811 20.7199 21.7708 20.599 21.7708C20.622 21.7708 20.6623 21.811 20.5759 21.8972C20.8236 21.8972 21.0712 21.5238 21.1979 21.7708L21.0712 21.3974L21.1979 21.271C21.0712 20.8976 21.2613 20.53 21.0136 20.1566C21.1403 20.0302 21.221 20.1566 21.221 20.0302V19.9038C21.1403 19.8195 21.1403 19.7372 21.221 19.6568C21.3477 19.5304 21.221 19.4098 21.1 19.2891C21.4686 19.0421 20.8524 18.7951 21.221 18.5481C21.221 18.4217 21.1 18.5481 21.1 18.4217V18.1115C21.1 18.1115 20.9733 18.2379 20.8524 18.1115C20.8524 17.8644 21.2267 17.9851 21.3477 17.8644C21.3477 17.6174 21.1 17.491 21.3477 17.491L22.1136 17.4106L22.321 17.244L22.4419 17.1176C22.1943 17.1176 21.9466 17.3647 21.699 17.244C21.8257 16.997 22.1943 17.244 22.321 16.997C22.6953 16.997 23.2079 17.02 23.4555 17.267L23.3288 17.491C23.3288 17.6174 23.2079 17.9219 23.3288 18.0483C22.9545 18.2953 23.4555 18.6687 23.0812 18.9157C23.2079 18.9157 23.0812 19.0421 23.2079 19.0421C23.3288 19.1627 23.0812 19.2891 23.0812 19.2891C22.8335 19.7832 23.3288 20.0532 22.9545 20.4208C23.3288 20.5415 22.7068 20.7885 23.2021 20.7885L23.0754 20.9149C23.2021 20.9149 23.1791 20.9149 23.3 21.0412C23.3 21.0412 23.1733 21.1676 23.3 21.2883C23.3 21.2883 23.421 21.5353 23.5477 21.4089L24.043 21.2883L24.4116 20.9149C24.5383 20.7885 24.7859 20.7885 24.6592 20.5415C24.9069 20.1681 25.1545 19.8004 25.4022 19.5534C25.6498 19.1857 26.0242 19.0593 25.8975 18.6859L26.7441 17.9679H26.4964V17.8472C26.3755 17.7208 26.577 17.8472 26.6231 17.7208C26.7901 17.2038 27.343 17.043 27.4697 16.6696C28.0917 16.5432 27.4697 17.2268 27.8441 17.3474C27.5964 17.5944 27.8441 18.1517 27.8441 18.3987H27.7174C27.8441 18.5251 27.965 18.5423 27.965 18.6687L27.8441 18.7951H28.2184C28.2184 18.9215 28.0975 18.9215 28.0975 19.0421C28.3451 19.1627 28.2645 18.9157 28.5121 19.0421L28.3854 19.1627C28.6331 19.1627 28.8807 19.1627 29.0074 19.2891C29.3818 18.9157 30.1247 19.4098 30.2457 18.7951C30.3724 18.9215 30.4933 18.7951 30.4933 18.9215H30.741C30.741 18.9215 30.8677 18.7951 30.741 18.7951C30.9886 18.5481 31.2363 18.5481 31.6106 18.4217C31.8583 18.0483 32.3536 18.301 32.7279 18.1747L32.6473 18.0942C32.7317 17.9985 32.8412 17.943 32.9756 17.9276C33.2232 17.807 33.2002 17.784 33.2232 17.6002C31.985 17.4738 30.8677 18.0942 29.7561 18.3413C29.5085 18.3413 28.7252 18.5883 28.7252 18.2149C28.7252 17.9679 28.3509 17.5542 28.7252 17.3072C28.8519 16.9338 28.3509 17.0602 28.2299 16.8132C28.3566 16.5662 28.6043 16.8132 28.6043 16.6868C28.6043 16.5604 28.7252 16.4398 28.6043 16.1927H28.7252C28.8519 15.9457 28.6043 15.9457 28.4776 15.8193L28.6043 15.693C28.6043 15.693 28.6043 15.9802 28.7252 14.6245L28.731 14.6359ZM28.7713 20.2772L28.5237 20.6506H28.397C28.397 20.7712 28.2703 21.024 28.0226 21.024H27.8959L27.7692 21.1504C27.8959 21.1504 28.0169 21.271 28.0169 21.271C28.0169 21.6444 27.5216 21.5181 27.3949 21.7651H27.7692C27.3949 22.0121 27.3949 22.2591 27.1472 22.5061C27.3949 22.8795 26.8996 22.8795 27.0205 23.1266C26.8938 23.2472 26.7729 23.3966 26.7729 23.5172C26.8938 23.6378 26.8938 23.7642 26.8938 23.7642C27.1415 24.1376 27.5158 24.6489 28.0111 24.4019C29.2493 24.1549 30.3666 23.6378 31.3572 23.0232C31.6049 22.8968 31.7316 23.1266 31.8525 23.2472V23.3736C31.7258 23.3736 31.6049 23.1266 31.4782 23.2472C31.4782 23.3315 31.5204 23.3736 31.6049 23.3736C31.4782 23.4942 31.2305 23.4942 30.9829 23.6206H31.3572C30.8619 24.1146 30.119 24.241 29.6237 24.6087C29.0017 24.4823 28.754 25.3497 28.1378 24.9821C27.7634 25.3555 27.3315 24.7121 26.9629 25.0855C26.7153 25.2119 26.7153 24.8385 26.4676 24.9591L26.5886 24.8385C26.5886 24.7121 26.4676 24.7121 26.4676 24.7121C26.4676 24.5857 26.22 24.5857 26.22 24.4651V24.3387C26.0933 24.3387 26.22 23.9653 26.0933 23.8446L26.22 23.7183C26.0933 23.7183 26.22 23.5919 26.22 23.4712C26.3409 23.2242 26.2833 23.0002 26.531 22.8738C26.2833 22.8738 26.4043 22.7474 26.4043 22.6268C26.8996 22.0063 27.3949 21.2653 27.7692 20.6506C28.1436 20.6506 28.3912 20.0302 28.7598 20.2772H28.7713ZM27.8614 16.3019C27.7347 16.4283 27.7347 16.5489 27.487 16.5489C27.3661 16.4225 27.487 16.3019 27.6137 16.3019C27.7404 16.3019 27.7347 16.1813 27.8614 16.3019ZM23.1964 16.6293C22.9487 16.6293 22.822 17.1234 22.822 16.7557C22.822 16.6293 23.0697 16.5087 23.1964 16.6293ZM43.9469 20.0474C44.1139 19.8406 43.8432 19.7774 43.6186 19.6338C43.0197 19.4098 42.772 19.3868 42.0291 19.427C41.2631 19.5936 40.3589 19.7142 39.6966 19.8808L39.5699 19.8578C38.7866 20.2715 38.0206 20.3117 37.1107 20.5587C36.9667 20.6621 36.7191 20.5989 36.7997 20.8287C37.0243 21.0125 37.2719 21.0355 37.6463 21.0527C37.75 21.2768 37.8939 21.0125 38.0782 21.0929L37.9112 20.9666C38.2625 21.1332 38.5332 20.9034 38.9018 20.9666L38.9248 20.8459C39.1725 20.8861 39.4432 20.6391 39.5641 20.6621C39.5411 20.5817 39.3568 20.4955 39.1091 20.4955C39.3798 20.3691 39.7081 20.5357 39.9788 20.4725L40.2495 20.4093L40.3762 20.3864C40.6469 20.2829 41.1191 20.4898 41.5107 20.2829L41.384 20.26C41.672 19.9095 42.1673 20.4036 42.3113 20.2829C42.2959 20.3672 42.2479 20.4093 42.1673 20.4093C42.2479 20.53 41.8793 20.53 41.7354 20.6564C41.839 20.9264 41.4647 20.8402 41.4474 21.0872C41.3034 21.3112 40.8887 21.6215 40.8715 21.8685C40.1688 22.5291 39.4662 23.0634 38.8672 23.7412C38.5793 24.2123 38.4123 24.5627 38.1013 25.0166C37.8306 25.2234 37.7903 25.344 37.6463 25.5738C37.5829 25.9472 37.917 25.367 38.1013 25.7806C38.2049 25.9012 38.3259 25.9242 38.3489 25.8036C38.8673 25.7404 39.1322 26.177 39.5468 25.9472V25.8208C39.6735 25.8438 39.9385 25.7576 39.9212 25.884C40.3934 25.884 40.7908 25.7634 41.4474 25.7002C41.6547 25.6772 41.7181 25.7231 41.6547 25.9702C41.0154 26.3838 40.6238 27.2053 40.2092 27.6591C39.8809 28.0899 39.5296 28.6874 39.1149 29.0378L39.0919 29.1642C38.9652 29.2676 39.0515 29.5951 38.8039 29.5376C38.9076 29.6812 38.6196 29.911 38.7233 30.0316L38.85 30.0546C38.873 29.934 38.9939 29.9742 38.9939 29.8478C39.1149 29.9742 39.1782 29.8708 39.1782 29.9914L39.0976 30.0948L39.2416 30.0546V29.9914C39.4086 29.7444 39.6735 30.0546 39.7369 29.8248C39.8406 29.8248 39.9212 29.9685 40.0479 29.9914C39.9269 29.9914 39.7196 30.0144 39.6735 30.0546L39.9212 30.1178C40.3531 29.7904 40.9118 30.181 41.4301 30.0144C41.4935 29.7674 41.8448 29.7904 41.9657 29.7904C42.2537 29.6065 42.438 29.8708 42.628 29.6468L42.5013 29.5031L42.628 29.5261C42.8757 29.5491 42.9793 29.3595 43.1233 29.5893L43.2039 29.6123C43.4113 29.5319 43.5322 29.4055 43.7626 29.4285C43.8432 29.2619 44.1542 29.3653 44.2809 29.2446C44.5516 29.1642 44.9202 28.9976 45.3982 29.0608C45.3982 28.854 45.3982 28.877 45.2139 28.7908C43.993 28.5208 42.8584 28.6874 41.7066 29.0608C41.3322 29.1412 40.7966 29.3078 40.4453 29.2676C40.3243 29.124 40.261 29.371 40.1343 29.2446L40.0709 29.2216L39.9442 29.1987C39.9442 29.0723 40.0709 29.0953 40.0709 29.0953L39.9442 29.0723C39.7369 28.7851 40.0709 29.0321 40.0882 28.9057C40.0882 28.9057 39.9615 28.8827 39.9845 28.7793C40.2322 28.8023 40.3762 28.4519 40.5029 28.3255C40.8542 28.4921 40.8311 27.998 41.2055 28.0555L41.0615 27.7855C41.1882 27.8085 41.1018 27.5385 41.2285 27.5614L41.3495 27.5844L41.5971 27.481L41.2228 27.4408C41.4935 27.3374 41.6547 26.987 41.9024 26.8663C42.2134 26.6825 42.2537 26.0621 42.6453 25.8553C42.9333 25.7519 42.9333 25.6312 43.1809 25.6887C43.1963 25.6044 43.2443 25.5623 43.3249 25.5623C43.2212 25.3153 43.2846 25.2923 43.0542 25.1487C42.2076 24.9017 41.194 24.9246 40.4107 25.1889C40.0594 25.1487 39.6447 25.3325 39.2762 25.2923C39.1495 25.2923 39.0285 25.2693 38.9479 25.0223C38.9479 24.8959 39.1955 24.9189 39.3625 24.7983L39.2416 24.7753C39.1379 24.5512 39.4892 24.7983 39.6332 24.6948C39.6332 24.5685 39.5065 24.4478 39.5296 24.3444C39.4489 23.7068 40.0479 24.1606 40.3128 23.8274C40.1861 23.9078 40.0652 23.7872 39.9385 23.7872C40.1055 23.5402 40.4568 23.7068 40.6008 23.6034C40.4971 23.4597 40.6238 23.477 40.6411 23.3563C40.5201 23.23 40.3531 23.5804 40.2495 23.4368C40.4165 23.0863 40.7851 23.1266 41.1594 23.1897L40.6872 22.9829C40.6872 22.8623 40.7102 22.7359 40.8715 22.6325L41.0788 22.7991C40.9521 22.6727 41.1018 22.5751 41.0154 22.5521C41.1364 22.5291 41.2861 22.2246 41.3898 22.4717L41.2458 22.5751L41.4935 22.598C41.5165 22.351 41.7641 22.374 41.7814 22.2476C41.6778 22.0006 41.3898 22.4717 41.2861 22.2074C41.4531 21.857 41.8045 22.127 41.9484 21.8972C42.0924 21.6732 42.3804 21.587 42.628 21.4836L42.5244 21.34C42.6511 21.3629 42.8987 21.2595 42.772 21.2595C42.772 21.1389 42.6453 21.1159 42.5474 20.9723C42.6914 20.7483 43.0657 20.8057 43.3307 20.7023H43.2039C43.1233 20.687 43.0888 20.6391 43.1003 20.5587C43.5725 20.6219 43.5725 20.1278 43.9469 20.0417V20.0474ZM41.1191 10.3274C40.9118 10.1609 40.6238 10.1609 40.3762 10C39.2416 10.1034 38.3144 10.494 37.2777 10.7411C36.7594 10.9249 35.9128 10.7181 35.7285 11.3155C36.0798 11.6028 36.3677 11.4189 36.9897 11.4994L37.1337 11.4362L37.2777 11.3557C37.2777 11.3155 38.0206 11.1891 37.9976 11.1891C37.9976 11.1891 37.9343 11.4764 37.8133 11.4591L37.773 11.5625L37.629 11.7464L37.5253 11.9302C37.606 12.3036 37.3007 12.5047 37.2777 12.7517C37.007 12.9585 37.462 13.2687 37.0531 13.4698C37.0531 13.4698 37.1798 13.4928 37.1568 13.5962V13.7225C37.0723 13.7225 37.0301 13.6804 37.0301 13.5962L36.8458 14.027C36.8458 14.297 36.8861 14.4808 36.9264 14.5842L37.0531 14.6474C37.1798 14.7911 37.0531 14.9576 37.8767 15.0783C38.1243 15.1013 38.3316 15.0783 38.683 14.9576C39.0976 14.8542 39.4489 14.791 39.9212 14.6302L40.0421 14.6532C40.0421 14.5268 40.1688 14.6762 40.2898 14.6762C40.6814 14.4923 40.9291 14.4062 41.3437 14.3028H41.4704C41.9888 14.1362 42.484 14.1993 42.9793 14.2625L42.8526 14.1419L43.3479 14.2453C43.2673 13.8719 42.8757 14.0787 42.628 13.7915C42.0291 13.7111 41.0788 13.4411 40.3992 13.8547C40.0479 13.6881 39.9039 14.0385 39.6563 14.0213C39.2646 14.0845 38.7463 14.1649 38.3374 14.3487C37.9861 14.1821 37.7154 14.5325 37.5311 14.2453C37.6578 14.1419 37.8594 14.0787 37.8824 13.9581L37.7615 13.8317L37.8824 13.7053C37.8824 13.7053 38.0264 13.4813 37.8018 13.4583C38.0725 13.3549 37.8421 13.2113 38.0898 13.2342C38.0898 13.1079 37.8421 13.2113 37.8651 13.0906C37.9688 13.1136 37.9861 12.9872 37.9861 12.9872L38.0091 12.8608L37.9055 12.7977L38.1531 12.6138C38.1761 12.4874 38.0494 12.3668 38.1761 12.3668L38.0955 12.2404C38.1358 12.1772 38.1589 12.16 38.1992 12.0566L38.2625 11.89L38.4468 11.4994C38.7348 11.3155 39.0688 10.9019 39.5641 10.9651L39.5872 10.8617H39.7139C39.9385 10.9019 39.9845 10.5343 40.2322 10.6779L40.1112 10.5343C40.3589 10.5745 40.6296 10.3504 40.7505 10.5113L40.6468 10.3849L41.1421 10.3217L41.1191 10.3274ZM44.3155 16.7557C44.1312 16.2617 43.2846 16.4857 42.7893 16.3019C42.15 16.3651 41.2804 16.3823 40.7448 16.6753C40.2264 16.7385 39.7311 16.6753 39.3395 17.0027C38.7002 17.043 38.0379 17.3532 37.4217 17.3934C36.4944 17.6634 35.5442 17.7036 34.7379 18.2149C35.0892 18.3815 34.8819 18.2953 34.9625 18.5423C35.3772 18.3355 35.8321 18.663 36.241 18.4619L36.1143 18.4389C36.2583 18.2149 36.362 18.3585 36.6327 18.2551C36.6327 18.2551 36.7594 18.2551 36.8803 18.2781C37.439 17.7208 37.9976 18.4217 38.5332 17.9908C38.6542 18.0138 38.6772 17.8874 38.8039 17.8874L38.9306 17.807L39.0515 17.9506C39.4259 17.8472 39.9615 17.56 40.5777 17.6232C41.0097 17.1923 41.505 17.3762 41.7526 17.3762V17.2498L42.0233 17.1693C42.271 17.0889 42.3746 17.3359 42.5186 17.1062C43.0369 16.9223 43.5322 17.1062 44.0448 16.9223V16.8017C44.3328 16.5776 44.2694 17.1291 44.3155 16.7615V16.7557ZM49.3951 18.7319C49.2684 18.4849 49.1705 18.7319 49.0438 18.6055C48.9229 18.7319 48.6925 18.4791 48.5716 18.8525H48.6983C48.5716 18.9789 48.4506 19.2259 48.3239 19.3466C48.3239 19.473 48.3239 19.72 48.1972 19.8406C48.1972 19.967 47.9496 20.0876 48.1972 20.214C48.0705 20.214 47.9726 20.3347 47.8459 20.461C47.8459 20.461 47.8459 20.5817 47.9726 20.5817C47.8881 20.6659 47.8056 20.7081 47.725 20.7081C47.8517 20.8287 47.8517 20.9551 47.725 20.9551C47.725 21.2021 47.4773 21.4721 47.8517 21.4491L47.604 21.7191C47.604 21.8455 47.604 22.0925 47.8517 22.0695C47.725 22.0695 47.4773 22.2132 47.4773 22.4602H47.604C47.7307 22.5636 47.8517 22.5636 47.7307 22.6842C47.7307 22.8106 47.604 22.7072 47.604 22.7072C47.4773 22.9542 47.7307 22.8106 47.7307 22.9312C47.9784 23.3046 47.3564 23.2012 47.3564 23.5689H47.604C47.604 23.6953 47.3794 23.8159 47.3794 23.9423C47.3794 24.1893 47.627 24.0629 47.7537 24.0457C47.7537 24.2927 47.4831 24.0055 47.3621 24.2295L47.3391 24.3559C47.0914 24.6029 46.6365 24.8097 46.3888 24.9131C46.3658 25.1602 46.2218 25.1602 46.3485 25.2866C46.4752 25.3095 46.7228 25.3095 46.7228 25.1831H46.5961C46.8438 25.0797 47.0914 25.0797 47.2354 24.9763C47.46 25.0797 47.2124 25.1027 47.46 25.2004V25.074C48.0993 24.9936 48.203 24.9936 48.9689 24.9074C49.1936 24.7638 49.9192 24.6604 50.1669 24.4134C50.4376 24.1663 50.6852 24.2927 51.0538 24.1893C50.9693 24.1893 50.9271 24.1472 50.9271 24.0629L51.3993 24.1434C51.4224 23.77 51.8946 24.04 52.1653 23.6895C52.1653 23.7738 52.2076 23.8083 52.292 23.7929V23.6666L52.5627 23.6034L52.9371 23.6263C53.2077 23.0289 53.8067 23.6666 54.1983 23.1955C54.0774 23.1955 54.2214 23.1553 54.2214 23.0289C54.78 23.1495 55.212 22.9025 55.4826 22.6785C55.857 22.7015 56.0816 22.6785 56.2256 22.5521C55.6036 22.2649 55.1083 22.4889 54.4921 22.4889C52.4878 22.8163 52.3669 22.8393 50.3396 23.5574C49.5967 23.8044 49.3087 23.9883 48.5831 23.948C48.6867 23.5746 48.0647 23.2874 48.6867 23.0404L48.56 22.914C48.3124 22.42 48.6867 22.0466 48.8077 21.6789C48.681 21.5525 48.56 21.6789 48.4333 21.5525C48.56 21.5525 48.681 21.3055 48.8077 21.3055C48.8077 21.1849 48.681 21.1849 48.681 21.1849C48.8077 21.0585 48.9286 20.6908 49.0553 20.8115L48.9344 20.6908C48.8077 20.5644 49.0553 20.4438 49.0553 20.3174C49.0553 20.3174 48.9344 20.3174 48.9114 20.1968C49.159 20.1968 49.159 19.9498 49.2857 19.8234L49.159 19.7027C49.159 19.4557 49.4066 19.5764 49.4066 19.3293H49.2799L49.5276 19.0823H49.4009L49.7752 18.8353H49.5276C49.5276 18.7147 49.6543 18.7147 49.6543 18.7147H49.4066L49.3951 18.7319ZM51.2554 20.4381C51.5836 20.214 51.48 19.921 51.5664 19.6568C51.4857 19.2432 51.6931 18.8525 51.4857 18.5251C52.0617 18.3585 51.4627 17.8472 51.9177 17.6404C51.8946 17.0659 52.1423 17.1464 52.125 16.5719C52.148 16.4455 52.1884 16.1813 52.3496 16.0779C52.102 15.894 52.5339 15.8308 52.4533 15.5206L52.1653 15.4804C52.3093 15.5034 52.4533 15.5206 52.4763 15.4C52.3727 15.2334 52.2517 15.2162 52.102 15.1932C52.0789 15.3196 52.2056 15.3368 52.0789 15.3196C51.8946 15.5666 51.503 15.3598 51.2554 15.153C51.2554 15.153 51.0883 15.2793 51.215 15.4402L51.3417 15.4632C50.9098 15.5264 50.6391 15.4862 50.2245 15.5264C49.8962 15.7504 49.0496 15.7332 48.4506 15.917C48.2663 16.141 48.059 16.5374 47.771 16.6351C47.6443 16.4685 47.3564 16.5317 47.4197 16.2617C48.9862 14.613 51.0768 14.7796 53.2193 14.4923C53.1962 14.6359 53.4439 14.6762 53.4266 14.8198C53.4036 14.9462 53.2596 14.9002 53.1386 14.883L53.2193 15.1702C53.2193 15.1702 53.0753 15.1472 53.0522 15.2966C53.3402 15.3368 53.0119 15.5666 53.2596 15.7504L52.9716 15.8538L53.0522 15.9974L52.8852 16.1008C53.0062 16.2674 52.9889 16.3881 53.0926 16.5547C52.6606 16.6179 52.8852 16.9453 52.8219 17.2153L52.5973 17.853L52.7009 17.9966C52.3899 18.077 52.6606 18.2666 52.6203 18.3872C52.5973 18.5308 52.4763 18.5136 52.4763 18.5136C52.5454 18.6247 52.5186 18.7625 52.3957 18.9272C52.3727 19.0536 52.5166 19.0938 52.6203 19.111L52.3496 19.1915L52.3093 20.1566C52.2056 20.4036 52.0617 20.6104 51.9349 20.7138C51.6873 20.8574 51.5836 20.7138 51.2554 20.4438V20.4381ZM60.067 25.4014C59.9403 25.028 59.9633 24.7006 59.8424 24.4536C59.3874 24.31 58.8691 24.3272 58.6675 24.9476C58.5235 25.3612 58.5235 25.7519 58.7308 26.1425C58.6905 26.2689 59.3298 26.3493 59.2895 26.47C59.1455 27.0272 59.0188 27.6821 58.5235 27.9923C58.2989 28.7563 57.4926 29.2504 57.4926 29.9512C57.4926 30.0316 57.7633 30.0776 57.7806 30.1753C58.0282 30.1753 58.0916 30.0948 58.2125 29.9685C58.0858 29.5951 58.7078 29.2274 58.8345 28.854C59.2089 28.3599 59.3298 27.7395 59.7042 27.2455C59.8309 27.1191 59.9518 26.8721 59.8309 26.7514L59.9576 26.5044C60.0843 26.378 59.9576 26.2574 59.9576 26.131C60.1419 26.0506 60.0843 25.637 60.0843 25.39L60.067 25.4014ZM72.9504 17.8242V17.6174C73.0771 17.537 72.9504 17.3474 73.1174 17.3934L73.1808 17.1693C73.4284 16.7787 73.1808 16.2617 73.6991 16.141C73.6991 15.7504 73.8834 15.7274 73.6185 15.4402C73.7624 15.4402 73.8258 15.1128 73.9467 15.2564L73.82 15.1128C73.9045 15.0323 73.9871 14.9921 74.0677 14.9921C73.941 14.8657 74.0677 14.7451 74.0677 14.7451L74.442 13.9236V13.6536C74.0907 13.4066 73.8028 13.4698 73.5148 13.4296C72.0923 13.78 71.0786 14.2338 69.8807 14.8945C69.3048 14.8313 69.7137 13.9696 69.61 13.6594C69.61 13.6594 69.4661 13.5157 69.61 13.533C69.61 13.2457 69.7771 13.0791 69.3854 12.7689C70.1053 12.4185 68.8671 11.7406 69.8807 11.2236C69.6561 11.057 70.065 10.9536 69.754 10.7698C69.6504 10.7698 69.443 10.9134 69.3394 10.7468C69.6273 10.6204 69.6676 10.6434 69.754 10.4768C69.6734 10.2298 69.4027 10.1494 69.1147 10.1494C69.2184 10.6032 68.9305 10.8502 69.0341 11.1777C69.0341 11.4381 69.0264 11.7119 69.0111 11.9991C68.7001 12.3094 68.9477 12.5736 68.8037 12.8666V12.993C68.7807 13.4468 68.7807 13.6134 68.7404 14.0442L68.8441 14.0213C68.8671 14.1649 68.7001 14.3315 68.7001 14.3315L68.8268 14.4349C68.9938 14.6187 68.9708 14.7623 68.6598 15.0553C68.8037 15.0553 68.9708 14.9117 68.9304 15.0553C69.1147 15.1989 68.9305 15.3655 68.8037 15.3425C68.9074 15.6298 69.1147 15.1989 69.2357 15.3655C69.2357 15.4919 69.0687 15.6355 69.0687 15.6355C69.3163 15.8021 69.2933 15.6585 69.564 15.8193C69.875 15.693 70.6985 15.8193 70.7388 15.2449C70.8828 15.2449 71.0671 14.9979 71.3378 15.1645C71.5048 15.0438 71.7928 15.061 71.7928 14.9174C71.9368 14.814 71.9771 14.7336 72.2075 14.7508L72.7258 14.4406C72.9965 14.3142 72.8064 14.1706 73.0771 14.1706C73.2844 14.0672 73.5494 14.2338 73.5321 14.4981L73.4054 14.7221L73.198 15.153C73.3247 15.4 72.8698 15.4804 72.8698 15.7274C72.9734 15.9974 72.6452 16.0147 72.6452 16.141C72.6452 16.3881 72.3975 16.6581 72.3975 16.9051C72.3975 17.2957 71.8792 17.5427 72.0059 17.9334V17.9736C70.808 18.594 68.6022 18.7147 67.3812 19.3121C67.6519 19.5993 67.9571 19.6395 68.3718 19.5361L68.1011 19.6625C68.6195 19.7027 69.276 19.8464 69.5467 19.3523C69.8174 19.3523 70.065 19.3753 70.3299 19.4959C70.0593 19.2259 71.3205 19.1053 71.1996 19.1053C71.4703 18.9847 72.0865 19.1685 72.2305 18.9215L72.1038 18.7778C72.3918 18.6515 72.6394 18.5538 72.887 18.6744C72.8237 18.7778 72.8237 18.8985 72.8237 18.8985C72.9446 18.8985 73.0483 18.7951 73.152 18.6917C73.175 18.5653 73.008 18.6917 72.9043 18.5481C73.031 18.571 73.2959 18.4447 73.2959 18.571C73.6703 18.8583 73.8143 18.4676 74.0792 18.6112L73.6876 18.324C74.0792 18.6112 74.4708 18.2608 74.7185 18.4044L74.8625 18.2781L75.3174 18.1115L75.7091 18.0081C75.9567 18.1517 76.2447 17.6806 76.3483 18.0483C76.3714 17.6749 76.8667 17.9679 77.0279 17.8644C77.1719 17.6806 76.9473 17.537 77.0279 17.6174C76.74 17.4738 76.429 17.4106 76.0143 17.4508C75.807 17.4508 75.4787 17.514 75.231 17.5542C74.5284 17.6347 73.7221 17.8415 73.2499 17.8242H72.9389H72.9504ZM75.9279 20.461C75.7206 20.2944 75.6169 20.2772 75.3923 20.237C74.2347 20.6276 73.0195 20.507 71.8849 20.9781C71.3896 21.0412 71.0153 21.1044 70.6467 21.2481C69.9671 21.1217 69.3278 21.2251 68.7692 21.7191L68.8729 21.7421C69.1839 22.0293 69.4085 21.6617 69.7195 21.9489L69.6158 21.8225C69.7598 21.7191 69.8001 21.9661 69.9441 21.8627C70.0881 21.7823 70.2954 21.9259 70.3357 21.7191L70.4394 21.8455L70.4163 21.9489L70.7907 21.9259C71.1017 21.5123 71.7813 21.6387 72.2766 21.5985C72.2766 21.4951 72.052 21.4549 72.0692 21.3285C72.2766 21.5985 72.7315 20.9781 72.7719 21.4721C72.9965 21.5123 72.9158 21.3687 73.1462 21.4089C73.3535 21.4491 73.6012 21.3859 73.7682 21.1849C73.9928 21.2078 74.4075 21.0412 74.4881 21.2883L74.0734 21.5583L71.1017 23.678C70.543 24.1491 69.9844 24.4823 69.5352 24.9936C69.8634 25.12 70.7101 25.3842 70.9807 25.367C71.1881 25.4302 71.2917 25.4474 71.4127 25.344L71.3321 25.2004L71.476 25.12C71.453 25.2234 71.5567 25.2463 71.6603 25.2636C71.931 25.2004 72.2823 25.2636 72.2996 25.0395L72.5473 25.0625L72.4436 24.9419C72.6682 24.9821 73.1635 24.9419 73.3708 24.8787C73.5782 25.1487 73.7624 24.6949 73.9698 24.8557L73.8431 24.9361L73.9467 25.0568C73.9237 25.2004 73.8028 25.1831 73.6588 25.2636C73.6588 25.367 73.5321 25.367 73.5321 25.367C73.3247 25.7978 73.1577 25.9414 72.9734 26.2746C72.6452 26.6882 72.1902 27.0559 71.8561 27.6131C71.2975 28.1072 70.6582 28.808 70.0823 29.4227C70.2896 29.6927 69.7943 29.7329 69.754 29.9168C69.921 29.7502 70.0823 30.0202 70.3299 30.0604C70.2493 29.7904 70.1226 29.8938 70.0189 29.7502L70.1629 29.7731C70.4509 29.9397 70.7216 30.0431 71.0729 29.9972L71.1535 30.0604L71.2802 30.1006C71.3032 29.9972 71.1766 29.9742 71.1766 29.9742C71.5682 29.7904 71.6949 29.7042 72.1441 29.7674C72.3111 29.4572 72.5991 29.8708 72.4321 29.4802C72.5588 29.5031 72.6394 29.6238 72.7603 29.664C72.9043 29.4399 73.2326 29.6008 73.4802 29.5606L73.3766 29.5376C73.2921 29.5223 73.2576 29.4802 73.2729 29.4112C73.4975 29.4342 73.6242 29.348 73.7279 29.4744L74.0159 29.2676V29.1642C74.1598 28.9804 74.3269 29.3078 74.3441 29.348L74.3672 29.2446C74.5111 29.0378 74.7185 29.2848 74.9661 29.2216C75.1331 28.9114 75.7091 29.0148 75.9567 28.9344L75.83 28.9114C75.997 28.7046 76.1007 28.9517 76.262 28.7678C76.3253 28.4404 76.7169 28.8482 76.6536 28.4806C76.7803 28.5036 76.8782 28.6242 76.8782 28.6242C77.0049 28.5438 76.7342 28.0497 77.0625 28.2106L77.0855 28.1072L77.2295 27.9808C76.7745 27.8142 76.4232 28.2048 75.8646 28.1244C74.8509 28.4116 73.7567 28.6587 72.6624 28.8253C72.2708 28.9689 72.1268 29.0321 71.6488 29.0493C71.5048 29.0263 71.2572 29.0895 71.4415 28.8827C71.4645 28.7563 71.5221 28.9057 71.5221 28.9057V28.8827L71.5624 28.7391C71.6891 28.6587 71.7698 28.7391 71.787 28.7621L71.8101 28.538L71.7467 28.4576C71.787 28.2336 72.1211 28.2738 72.3687 28.2336L72.1441 28.1704C72.1844 27.9463 72.3687 28.1072 72.4954 28.0268C72.4417 27.9999 72.3802 27.9444 72.3111 27.8602C72.4378 27.7797 72.6394 27.9234 72.6394 27.9234L72.576 27.797L72.72 27.5729C72.9677 27.5097 72.9043 27.2627 73.1117 27.3029C73.008 27.28 73.031 27.1593 73.031 27.1593L73.2787 27.0961C73.0713 26.8261 73.2787 27.0961 73.4054 26.9927L73.4284 26.8663C73.6991 26.8261 73.6127 26.5561 73.7567 26.3493L74.0446 26.0391C73.8776 25.6657 74.419 25.8725 74.6033 25.5451L74.396 25.3785C74.3153 25.2578 74.4363 25.1717 74.4363 25.1717C74.4996 25.0683 74.5803 25.0683 74.5803 25.0683C74.8509 24.9017 74.9085 24.534 74.9546 24.3042C73.8604 23.8734 72.8467 24.3846 71.7525 24.5283C71.4012 24.4651 71.4242 24.7753 71.1305 24.488L71.1535 24.3674C71.2226 24.3827 71.2917 24.4383 71.3608 24.534C71.4875 24.4076 71.5048 24.31 71.5048 24.31L71.4645 24.1261L71.9598 23.9595C72.0001 23.9193 72.2075 23.6723 72.2708 23.7757L72.5588 23.5057L72.5991 23.3621C72.5991 23.3621 72.7258 23.2817 72.7027 23.3851C72.9504 23.4253 72.9504 23.0117 73.1347 23.0346L73.2614 22.9312L73.4284 22.7876C73.4515 22.6842 73.4687 22.621 73.6127 22.5176L73.486 22.4946C73.8776 22.351 74.2693 22.0408 74.6609 21.8742C74.8049 21.7938 75.1562 21.8512 75.0525 21.587C75.0679 21.5181 75.1159 21.4912 75.1965 21.5066C75.2598 21.1791 75.5881 21.2366 75.6688 20.8057C75.8761 20.6391 75.5248 20.5989 75.5478 20.4783C75.6688 20.3978 75.8761 20.5415 75.8991 20.4381L75.9279 20.461ZM72.0001 23.9825C72.0001 23.9825 71.9771 24.0055 71.9771 23.9825H72.0001Z" fill="white"/>
<path fill-rule="evenodd" clip-rule="evenodd" d="M82.3286 18.7314C82.2019 18.4844 82.104 18.7314 81.9773 18.605C81.8506 18.7314 81.626 18.4786 81.5051 18.852H81.6318C81.5051 18.9784 81.3841 19.2254 81.2574 19.3461C81.2574 19.4725 81.2574 19.7195 81.1365 19.8401C81.1365 19.9665 80.8888 20.0871 81.1365 20.2135C81.0098 20.2135 80.9119 20.3342 80.7852 20.4605C80.7852 20.4605 80.7852 20.5812 80.9119 20.5812C80.8274 20.6654 80.7448 20.7076 80.6642 20.7076C80.7851 20.8282 80.7851 20.9546 80.6642 20.9546C80.6642 21.2016 80.4166 21.4716 80.7852 21.4486L80.5375 21.7186C80.5375 21.845 80.5375 22.092 80.7852 22.069C80.6642 22.069 80.4108 22.2127 80.4108 22.4597H80.5375C80.6642 22.5631 80.7851 22.5631 80.6642 22.6837C80.6642 22.8101 80.5375 22.7067 80.5375 22.7067C80.4108 22.9537 80.6642 22.8101 80.6642 22.9307C80.9119 23.3041 80.2899 23.2007 80.2899 23.5684H80.5375C80.5375 23.6948 80.3129 23.8154 80.3129 23.9418C80.3129 24.1888 80.5605 24.0624 80.6872 24.0452C80.6872 24.2922 80.4166 24.005 80.2956 24.229L80.2726 24.3554C80.0249 24.6024 79.57 24.8092 79.3223 24.9127C79.2993 25.1597 79.1553 25.1597 79.282 25.2861C79.4087 25.309 79.6563 25.309 79.6563 25.1827H79.5296C79.7773 25.0793 80.0249 25.0792 80.1689 24.9758C80.3935 25.0792 80.1459 25.1022 80.3935 25.1999V25.0735C81.0328 24.9931 81.1365 24.9931 81.9024 24.9069C82.1271 24.7633 82.8527 24.6599 83.1004 24.4129C83.3711 24.1659 83.6187 24.2922 83.9873 24.1888C83.9028 24.1888 83.8606 24.1467 83.8606 24.0624L84.3328 24.1429C84.3559 23.7695 84.8281 24.0395 85.0988 23.689C85.0988 23.7733 85.141 23.8078 85.2255 23.7924V23.6661L85.4962 23.6029L85.8706 23.6258C86.1412 23.0284 86.7402 23.6661 87.1318 23.195C87.0051 23.195 87.1549 23.1548 87.1549 23.0284C87.7135 23.149 88.1455 22.902 88.4161 22.678C88.7905 22.701 89.0151 22.678 89.1591 22.5516C88.5371 22.2644 88.0418 22.4884 87.4255 22.4884C85.4213 22.8159 85.3004 22.8388 83.2731 23.5569C82.5302 23.8039 82.2422 23.9878 81.5166 23.9476C81.6202 23.5742 80.9982 23.2869 81.6202 23.0399L81.4993 22.9135C81.2517 22.4195 81.6202 22.0461 81.7469 21.6784C81.6202 21.552 81.4993 21.6784 81.3726 21.552C81.4993 21.552 81.6202 21.305 81.7469 21.305C81.7469 21.1844 81.6202 21.1844 81.6202 21.1844C81.7469 21.058 81.8679 20.6903 81.9946 20.811L81.8679 20.6903C81.7469 20.5639 81.9946 20.4433 81.9946 20.3169C81.9946 20.3169 81.8679 20.3169 81.8506 20.1963C82.0983 20.1963 82.0983 19.9493 82.225 19.8229L82.0983 19.7022C82.0983 19.4552 82.3459 19.5759 82.3459 19.3288H82.2192L82.4668 19.0818H82.3401L82.7145 18.8348H82.4668C82.4668 18.7142 82.5936 18.7142 82.5936 18.7142H82.3459L82.3286 18.7314ZM84.1889 20.4376C84.5171 20.2135 84.4135 19.9205 84.4999 19.6563C84.4192 19.2427 84.6208 18.852 84.4192 18.5246C84.9952 18.358 84.3962 17.8467 84.8512 17.6399C84.8281 17.0654 85.0758 17.1459 85.0585 16.5714C85.0815 16.445 85.1219 16.1808 85.2831 16.0774C85.0355 15.8935 85.4674 15.8303 85.3868 15.5201L85.0988 15.4799C85.2428 15.5029 85.3868 15.5201 85.4098 15.3995C85.3062 15.2329 85.1852 15.2157 85.0355 15.1927C85.0124 15.3191 85.1391 15.3363 85.0124 15.3191C84.8281 15.5661 84.4365 15.3593 84.1889 15.1525C84.1889 15.1525 84.0218 15.2789 84.1485 15.4397L84.2695 15.4627C83.8375 15.5259 83.5669 15.4857 83.1522 15.5259C82.8239 15.7499 81.9773 15.7327 81.3784 15.9165C81.1941 16.1406 80.9867 16.5369 80.6988 16.6346C80.5721 16.468 80.2841 16.5312 80.3475 16.2612C81.914 14.6125 84.0046 14.7791 86.147 14.4918C86.124 14.6355 86.3716 14.6757 86.3543 14.8193C86.3313 14.9457 86.1873 14.8997 86.0664 14.8825L86.147 15.1697C86.147 15.1697 86.003 15.1467 85.98 15.2961C86.2679 15.3363 85.9397 15.5661 86.1873 15.7499L85.8994 15.8533L85.98 15.9969L85.813 16.1003C85.9397 16.2669 85.9166 16.3876 86.0203 16.5542C85.5884 16.6174 85.813 16.9448 85.7496 17.2148L85.525 17.8525L85.6287 17.9961C85.3177 18.0765 85.5884 18.2661 85.548 18.3867C85.525 18.5303 85.4041 18.5131 85.4041 18.5131C85.4732 18.6242 85.4463 18.762 85.3234 18.9267C85.3004 19.0531 85.4501 19.0933 85.548 19.1105L85.2774 19.191L85.237 20.1561C85.1334 20.4031 84.9894 20.6099 84.8627 20.7133C84.615 20.8569 84.5114 20.7133 84.1831 20.4433L84.1889 20.4376ZM93.0063 25.401C92.8795 25.0276 92.9026 24.7001 92.7816 24.4531C92.3267 24.3095 91.8141 24.3267 91.6068 24.9471C91.4628 25.3607 91.4628 25.7514 91.6701 26.142C91.6298 26.2684 92.2691 26.3488 92.2288 26.4695C92.0848 27.0267 91.9581 27.6816 91.4628 27.9918C91.2382 28.7558 90.4319 29.2499 90.4319 29.9507C90.4319 30.0312 90.7026 30.0771 90.7198 30.1748C90.9675 30.1748 91.0308 30.0943 91.1518 29.968C91.0308 29.5946 91.6471 29.2269 91.7738 28.8535C92.1481 28.3595 92.2691 27.739 92.6434 27.245C92.7701 27.1186 92.8911 26.8716 92.7701 26.7509L92.8911 26.5039C93.0178 26.3775 92.8911 26.2569 92.8911 26.1305C93.0754 26.0501 93.0178 25.6365 93.0178 25.3895L93.0063 25.401ZM103.102 18.2144L102.878 18.3408C102.382 18.2776 102.653 18.3408 102.446 18.4212C102.071 18.3408 101.639 18.5648 101.248 18.4614C100.712 18.6452 100.05 18.5418 99.6985 18.852C98.5006 18.8922 97.4697 19.3863 96.4963 19.7195C96.1047 19.7827 95.5058 20.0469 95.6728 20.6271C95.9435 20.5237 95.8801 20.7937 96.0241 20.811C96.0874 20.4376 96.312 20.6673 96.5597 20.7305C96.767 20.3629 97.032 20.4031 97.199 20.1733C97.4466 20.3399 98.6849 19.9263 98.5639 19.9895C99.2262 19.9895 99.8655 19.4725 100.631 19.7195L100.655 19.5931C101.029 19.6161 101.524 19.5529 101.852 19.4265C101.829 19.7137 101.852 20.0642 101.875 20.3514C101.708 20.472 101.835 20.4548 101.979 20.5754C101.588 20.742 102.1 20.989 101.708 21.1327C101.582 21.3797 101.852 21.3797 101.835 21.6497C101.835 21.6497 101.708 21.6497 101.731 21.9197C102.123 21.9197 101.708 22.3103 101.708 22.3103L101.852 22.4367C101.829 22.5803 101.916 22.8101 101.668 22.8273C101.812 22.971 102.1 22.8044 102.267 22.9939L102.348 22.7067C102.348 22.791 102.396 22.8331 102.492 22.8331C102.348 22.7067 102.595 22.2988 102.451 22.1954C102.451 22.1954 102.451 22.0518 102.578 22.0288C102.555 22.0518 102.641 21.6554 102.474 21.7818C102.459 21.6976 102.494 21.6497 102.578 21.6382C102.186 21.1442 103.258 21.1671 102.722 20.7708C102.762 20.5237 102.849 19.9665 102.849 19.4725C102.722 19.4725 102.849 19.3691 102.872 19.2254C102.975 19.2484 103.079 19.2656 103.183 19.2656C104.006 19.0186 104.795 18.8922 105.7 18.9152C105.97 18.9784 106.276 18.7314 106.546 18.8118C106.69 18.5648 107.082 18.7716 107.353 18.6682L107.784 18.7314L108.113 18.381C107.842 18.1569 107.992 18.2546 107.64 18.0708L107.353 18.0937L107.105 18.0708C106.713 17.9903 106.546 18.111 106.258 18.1971C105.97 17.7433 105.371 18.2374 104.997 18.0305C104.582 18.0937 104.398 18.3005 103.966 18.2144H103.119H103.102ZM106.011 11.0508C104.605 11.0508 103.263 11.2174 102.152 11.9584C101.985 12.3721 101.328 12.2284 101.449 12.8029L101.904 12.9293V12.8259C102.031 12.6995 102.319 12.5559 102.48 12.4123C102.895 12.5559 103.016 12.1021 103.471 12.2457C103.471 12.1021 103.759 12.1021 103.759 11.9584C104.461 11.9584 105.02 11.6712 105.596 12.1021V12.4123L105.492 12.5961C105.492 12.8833 105.469 12.9235 105.469 13.0901C105.343 13.5038 105.469 13.791 105.469 14.2046C105.469 14.3712 105.181 14.4918 105.343 14.6584L105.176 14.9457L105.463 15.0663H105.337L105.463 15.3535C105.463 15.5201 105.152 15.5201 105.152 15.5201C105.319 15.7671 105.152 15.9337 105.026 16.0544L105.314 16.221L104.859 16.3474L105.147 16.514C105.435 16.3474 105.435 16.2267 105.435 16.0601C105.723 15.9395 105.619 15.5259 106.034 15.3593C106.034 15.2329 106.034 15.072 105.907 14.9457C106.034 14.6584 106.034 14.4918 106.322 14.4918L106.034 14.2046C106.201 14.084 106.322 13.9576 106.322 13.791C106.195 13.791 106.195 13.9576 106.195 13.791L106.322 13.5038L106.034 13.3774C106.034 13.2108 106.201 13.3774 106.322 13.3774V12.8029H106.195L106.322 12.6363L106.195 12.3893L106.322 12.1021C106.322 11.9355 106.034 11.6482 106.489 11.6482C106.322 11.5276 106.16 11.5046 106.281 11.3782L105.993 11.0508H106.011ZM100.332 11.9355C100.459 12.5099 100.309 12.9235 100.309 13.3774L100.021 13.6646L100.148 13.791L100.021 13.9576C100.148 13.9576 100.148 14.2448 100.148 14.3712C100.171 14.331 100.004 14.4344 100.021 14.4976C100.021 14.9514 99.854 15.365 99.854 15.8131C99.854 15.8131 99.7273 15.8131 99.7273 15.9395H99.854C99.854 16.3531 99.854 16.6403 99.7273 16.8069C99.5603 16.8069 99.5603 16.9276 99.5603 16.9276C99.7273 17.0942 99.7273 17.2148 99.7273 17.502L99.5603 17.6284H99.7273C99.5603 17.795 99.376 17.795 99.2089 17.795C99.376 17.2205 98.5869 17.3814 99.0016 16.8069C99.0016 16.6403 99.065 16.2325 99.2089 16.3531C99.3356 16.5197 99.3356 16.3531 99.3356 16.3531C99.065 16.2267 98.921 15.9395 99.065 15.6523C99.4969 15.365 99.065 14.7848 99.3356 14.4976C99.3356 14.3712 99.3356 14.084 99.2089 14.084C99.6236 13.7967 99.5199 13.5497 99.6409 13.1189V12.9925C99.2089 12.5616 98.5236 12.8891 98.1147 12.8891C97.6597 13.1763 96.8131 12.7627 96.6461 13.4635C96.2314 13.4635 96.1278 13.3831 96.0068 13.2165C96.4215 12.5157 97.4293 12.6823 98.2587 12.2284C98.8346 12.2284 99.5775 11.9412 100.32 11.9412L100.332 11.9355ZM101.225 23.3444C100.977 23.3444 100.937 23.0973 100.689 23.0973C100.441 23.3444 100.027 23.5914 100.274 23.9648C100.148 23.9648 100.274 24.2118 100.027 24.3382C100.153 24.4646 100.274 24.5852 100.153 24.8322C100.28 24.9529 100.027 24.9529 100.28 25.0793C100.28 25.2056 100.28 25.3263 100.153 25.4527C100.28 25.579 100.027 25.6997 100.28 25.6997C100.153 25.8203 100.28 26.0731 100.033 26.0731L100.159 26.1995C100.159 26.4465 100.407 26.6935 100.033 26.8199C100.159 27.0669 100.159 27.4403 100.033 27.6873C100.159 27.6873 100.28 27.8137 100.28 27.9343C100.401 28.0607 100.775 27.9343 100.775 28.1814H100.649C100.775 28.3078 100.689 28.3078 100.689 28.3078C100.816 28.1814 100.96 28.1814 100.96 27.9343C100.96 27.9343 100.833 28.0607 100.833 27.9343L100.81 27.8712L100.603 27.808C100.603 27.6816 100.729 27.4346 100.977 27.3139C100.85 27.0669 100.729 27.0669 100.603 26.9405C100.729 26.8141 100.85 27.0669 100.977 26.9405C100.81 26.6935 100.937 25.9295 101 25.872C101.374 25.0046 102.716 25.0505 103.58 24.9241C103.828 25.1712 103.292 25.4986 103.292 25.7456C102.797 26.3661 102.757 27.0612 102.261 27.5552C102.261 27.9286 101.639 28.1526 101.639 28.5203C101.887 28.3997 102.135 28.3997 102.261 28.5203C102.261 28.6007 102.198 28.6869 102.117 28.7271C102.405 28.6869 102.342 28.8937 102.676 28.8937C103.05 28.7673 103.793 28.8937 103.914 28.5203C104.41 28.6467 104.657 28.1469 105.152 28.3997C105.4 28.1526 105.832 28.3192 105.999 28.0263C105.504 27.7792 104.657 27.6356 104.162 28.0033C103.788 28.0033 103.419 28.1297 103.171 28.2503C103.05 28.2503 102.924 28.2503 102.797 28.1239L102.924 27.9975C102.924 28.1239 103.05 28.1239 103.05 28.1239C103.05 27.9975 102.924 27.9975 102.924 27.8769C102.924 27.8769 103.05 27.7505 103.171 27.7505C103.292 27.7505 103.419 27.2967 103.171 27.1761L103.419 26.929C103.667 26.929 103.298 26.682 103.546 26.682C103.672 26.682 103.793 26.682 103.672 26.5556C103.799 26.4292 103.672 26.4292 103.672 26.3086C103.799 26.0616 104.047 26.0616 104.168 25.6882C104.415 25.4412 104.168 25.0678 104.542 24.8207C104.415 24.5737 104.911 24.5737 104.911 24.4473C103.96 23.6259 102.227 25.0678 100.862 24.321H100.989C100.862 24.0739 101.236 24.1946 101.236 24.0739C101.115 23.9533 100.989 24.0739 100.862 23.9533L101.109 23.7063L100.983 23.5799C100.983 23.5799 101.23 23.4535 101.23 23.3329L101.225 23.3444ZM119.349 13.3774C119.349 12.9465 118.957 12.9638 118.687 12.6995C117.448 12.6995 116.043 12.9465 115.237 13.8944C115.358 14.1816 115.565 13.8714 115.692 14.038L115.548 14.1414C115.675 14.1414 115.94 13.8542 116.21 14.015C116.089 14.1414 115.963 14.2391 115.836 14.285H116.084C116.475 14.1414 116.556 13.814 117.114 13.814L116.619 13.7335C116.746 13.6072 117.241 13.5669 117.241 13.2797C117.385 13.4233 117.385 13.5669 117.385 13.6933C117.633 13.4233 118.335 13.5669 118.583 13.5669C118.75 13.814 118.767 14.1874 118.623 14.4516H118.767L118.623 14.5952L118.767 14.7389C118.767 14.8825 118.623 14.8825 118.623 14.8825C118.767 15.2731 118.151 16.0774 118.56 16.198C118.416 16.3416 118.289 16.198 118.289 16.3416C118.289 17.0425 118.145 17.2091 118.145 17.8869C118.416 17.8869 118.433 18.0133 118.721 17.7605L118.577 17.6169C118.721 17.4906 118.992 17.3297 118.992 17.2033C118.808 16.9793 119.159 16.7323 119.28 16.3359C119.136 16.1923 119.343 15.9223 119.464 15.9223C119.343 15.6523 119.608 15.2616 119.343 15.141C119.424 15.141 119.447 15.0778 119.464 15.1008C119.464 14.8308 119.591 14.5838 119.343 14.4401L119.614 14.3138L119.343 14.0438H119.464C119.343 13.9174 119.608 13.6301 119.343 13.4865V13.3601L119.349 13.3774ZM113.814 13.7048C113.4 13.5784 113.094 13.3314 112.553 13.3314C111.73 13.6186 110.572 13.9921 109.766 14.3999C109.766 14.5665 109.887 14.6469 110.036 14.6469C109.766 14.7733 110.036 14.894 109.766 15.0203C109.789 15.141 109.887 15.164 110.157 15.0203V14.894C110.445 14.894 110.779 14.7503 111.027 14.624C111.194 14.3367 111.442 14.5435 111.586 14.2506H111.937C111.937 13.8369 112.616 13.9633 112.887 13.9633V14.3769C112.616 14.6469 113.031 14.9744 112.616 15.118L112.887 15.2616C112.472 15.388 112.887 15.7154 112.616 15.8361C112.887 16.1463 112.225 16.4106 112.743 16.4106C112.743 16.5369 112.616 16.5369 112.616 16.5369C112.616 16.9505 112.346 17.0942 112.616 17.3412C112.472 17.3412 112.472 17.5078 112.472 17.5078C112.472 17.6514 112.346 17.9214 112.346 18.042C112.472 18.1627 112.219 18.4327 112.472 18.5993L112.346 18.7257C112.472 18.9957 112.346 19.2599 112.737 19.5471C113.152 19.5471 112.945 19.8171 113.336 19.6908C113.192 19.6908 113.192 19.5471 113.192 19.5471L113.336 19.4265C113.192 19.4265 113.192 19.2599 113.066 19.2599L113.457 19.1335C113.187 18.9899 113.457 18.5993 113.187 18.4327C113.187 18.3063 113.394 18.4327 113.515 18.3063L113.244 18.0363H113.388V17.7893C113.244 17.7893 113.117 17.7893 113.117 17.6457L113.388 17.502L113.117 17.3354C113.244 17.0884 113.388 17.0884 113.509 17.0884L113.117 16.6748L113.509 16.5312L113.238 16.4048C113.238 16.1348 113.382 16.4048 113.509 16.4048L113.238 16.1348V16.0084C113.238 15.6982 114.062 15.5144 113.509 15.1008C113.509 15.1008 113.388 15.2444 113.388 15.1008C113.244 14.9572 113.509 15.1008 113.676 14.9572C113.676 14.6872 113.244 14.6872 113.509 14.5665C113.676 14.4229 113.509 14.4229 113.509 14.2793C113.676 14.1357 113.924 14.0955 113.797 13.6818L113.814 13.7048ZM117.886 13.1304C118.007 13.1304 118.007 12.9867 118.134 13.1304C118.007 13.4176 117.535 13.1706 117.512 13.1304C117.512 13.1304 117.719 12.9867 117.886 13.1304ZM116.481 13.6014C116.354 13.8484 116.089 13.7278 115.945 13.8484C115.945 13.6014 116.36 13.7221 116.36 13.6014H116.487H116.481ZM120.236 19.9435C120.213 20.0699 120.276 20.0239 120.299 20.2308C120.115 20.5812 119.66 20.2537 119.493 20.6042C119.078 20.811 118.606 20.6042 118.318 20.9316C118.07 20.9086 117.679 20.9718 117.552 21.0752C117.281 21.1786 117.057 21.012 116.89 21.2418C116.993 21.3854 116.809 21.4888 116.826 21.7761C116.7 21.8795 116.97 21.8795 116.993 22.0001C116.867 22.1265 116.913 22.5573 116.93 22.8044C116.803 22.9078 116.97 23.0514 116.97 23.0514C116.97 23.0514 116.803 22.9078 116.844 23.0284C116.844 23.149 116.988 23.2984 116.867 23.4018C116.867 23.5224 116.74 23.5052 116.89 23.6488L117.016 23.7695C116.947 23.7695 116.921 23.8116 116.936 23.8958C116.809 23.8729 116.688 23.9993 116.688 23.9993C116.815 24.1199 116.832 24.2463 116.959 24.3727C116.631 24.4761 116.999 24.6197 117.022 24.7461C116.878 24.7231 116.775 24.8495 116.648 24.9701C116.896 24.9701 116.792 25.1941 116.815 25.3205L116.711 25.4469L116.959 25.5905C116.832 25.5676 116.711 25.5675 116.711 25.5675C117.103 25.8375 116.527 26.0214 116.919 26.3086C116.798 26.3086 116.798 26.435 116.798 26.435C116.942 26.682 116.878 27.1531 116.901 27.5035C116.631 27.3771 116.798 27.6241 116.694 27.7505H116.942C116.942 27.7505 116.815 27.8769 116.942 27.8769C116.982 28.1239 116.613 28.2043 116.383 28.4514C116.51 28.572 116.631 28.4514 116.757 28.4743C116.78 28.7214 116.631 28.5777 116.533 28.6984C116.262 28.572 116.037 28.1814 116.014 28.0607C116.095 27.6873 115.951 27.3426 116.037 26.9692C115.916 26.9692 115.893 26.7222 115.767 26.8256C115.974 26.3718 115.559 25.8548 115.893 25.5101C115.726 24.8897 116.037 24.4416 115.87 23.9476C116.222 23.8442 115.686 23.4305 116.078 23.3501C115.767 23.2065 116.158 22.9997 115.997 22.7297C116.124 22.6263 115.934 22.2988 115.934 22.1725C116.06 22.069 116.014 21.7186 116.141 21.598L116.078 21.3739C115.934 21.4773 115.83 21.3337 115.686 21.4371C115.214 21.3739 114.966 21.7244 114.465 21.7646C114.114 21.598 113.083 21.9886 112.709 21.9312C112.438 22.0346 111.925 22.2012 111.591 21.9082C111.424 22.1322 111.367 21.7416 111.2 21.9714L110.641 21.7646C110.848 21.2935 111.136 21.2073 111.551 21.0005C111.799 21.0408 111.902 21.5578 112.317 21.351C113.083 21.2073 114.73 20.7937 115.496 20.6501C116.279 20.5065 116.919 20.3629 117.685 20.2193C118.491 19.9493 119.418 19.4552 120.247 19.9493L120.236 19.9435ZM125.396 18.7314C125.275 18.4844 125.172 18.7314 125.045 18.605C124.924 18.7314 124.694 18.4786 124.573 18.852H124.699C124.573 18.9784 124.452 19.2254 124.325 19.3461C124.325 19.4725 124.325 19.7195 124.198 19.8401C124.198 19.9665 123.951 20.0871 124.198 20.2135C124.072 20.2135 123.974 20.3342 123.847 20.4605C123.847 20.4605 123.847 20.5812 123.968 20.5812C123.887 20.6654 123.805 20.7076 123.72 20.7076C123.847 20.8282 123.847 20.9546 123.72 20.9546C123.72 21.2016 123.473 21.4716 123.847 21.4486L123.599 21.7186C123.599 21.845 123.599 22.092 123.847 22.069C123.72 22.069 123.473 22.2127 123.473 22.4597H123.599C123.72 22.5631 123.847 22.5631 123.72 22.6837C123.72 22.8101 123.599 22.7067 123.599 22.7067C123.473 22.9537 123.72 22.8101 123.72 22.9307C123.968 23.3041 123.346 23.2007 123.346 23.5684H123.594C123.594 23.6948 123.369 23.8154 123.369 23.9418C123.369 24.1888 123.617 24.0624 123.743 24.0452C123.743 24.2922 123.473 24.005 123.352 24.229L123.329 24.3554C123.081 24.6024 122.626 24.8092 122.378 24.9127C122.355 25.1597 122.211 25.1597 122.338 25.2861C122.465 25.309 122.712 25.309 122.712 25.1827H122.586C122.833 25.0793 123.081 25.0792 123.225 24.9758C123.45 25.0792 123.202 25.1022 123.45 25.1999V25.0735C124.089 24.9931 124.193 24.9931 124.958 24.9069C125.183 24.7633 125.909 24.6599 126.156 24.4129C126.427 24.1659 126.675 24.2922 127.043 24.1888C126.959 24.1888 126.917 24.1467 126.917 24.0624L127.389 24.1429C127.412 23.7695 127.884 24.0395 128.155 23.689C128.155 23.7733 128.197 23.8078 128.282 23.7924V23.6661L128.552 23.6029L128.927 23.6258C129.197 23.0284 129.796 23.6661 130.188 23.195C130.061 23.195 130.211 23.1548 130.211 23.0284C130.77 23.149 131.201 22.902 131.472 22.678C131.847 22.701 132.071 22.678 132.215 22.5516C131.593 22.2644 131.098 22.4884 130.482 22.4884C128.477 22.8159 128.356 22.8388 126.329 23.5569C125.586 23.8039 125.298 23.9878 124.573 23.9476C124.676 23.5742 124.054 23.2869 124.676 23.0399L124.55 22.9135C124.302 22.4195 124.676 22.0461 124.797 21.6784C124.671 21.552 124.55 21.6784 124.423 21.552C124.55 21.552 124.671 21.305 124.797 21.305C124.797 21.1844 124.671 21.1844 124.671 21.1844C124.797 21.058 124.918 20.6903 125.039 20.811L124.918 20.6903C124.791 20.5639 125.039 20.4433 125.039 20.3169C125.039 20.3169 124.918 20.3169 124.895 20.1963C125.143 20.1963 125.143 19.9493 125.269 19.8229L125.143 19.7022C125.143 19.4552 125.39 19.5759 125.39 19.3288H125.269L125.517 19.0818H125.39L125.765 18.8348H125.517C125.517 18.7142 125.638 18.7142 125.638 18.7142H125.39L125.396 18.7314ZM127.256 20.4376C127.585 20.2135 127.481 19.9205 127.567 19.6563C127.487 19.2427 127.688 18.852 127.487 18.5246C128.063 18.358 127.464 17.8467 127.919 17.6399C127.896 17.0654 128.143 17.1459 128.126 16.5714C128.149 16.445 128.189 16.1808 128.351 16.0774C128.103 15.8935 128.535 15.8303 128.454 15.5201L128.166 15.4799C128.31 15.5029 128.454 15.5201 128.477 15.3995C128.374 15.2329 128.253 15.2157 128.103 15.1927C128.08 15.3191 128.207 15.3363 128.08 15.3191C127.896 15.5661 127.504 15.3593 127.256 15.1525C127.256 15.1525 127.089 15.2789 127.216 15.4397L127.343 15.4627C126.911 15.5259 126.64 15.4857 126.226 15.5259C125.897 15.7499 125.051 15.7327 124.452 15.9165C124.267 16.1406 124.06 16.5369 123.772 16.6346C123.651 16.468 123.357 16.5312 123.421 16.2612C124.987 14.6125 127.078 14.7791 129.22 14.4918C129.197 14.6355 129.445 14.6757 129.428 14.8193C129.405 14.9457 129.261 14.8997 129.14 14.8825L129.22 15.1697C129.22 15.1697 129.076 15.1467 129.053 15.2961C129.341 15.3363 129.013 15.5661 129.261 15.7499L128.973 15.8533L129.053 15.9969L128.886 16.1003C129.013 16.2669 128.99 16.3876 129.094 16.5542C128.662 16.6174 128.886 16.9448 128.823 17.2148L128.598 17.8525L128.702 17.9961C128.391 18.0765 128.662 18.2661 128.621 18.3867C128.598 18.5303 128.477 18.5131 128.477 18.5131C128.546 18.6242 128.52 18.762 128.397 18.9267C128.374 19.0531 128.523 19.0933 128.621 19.1105L128.351 19.191L128.31 20.1561C128.207 20.4031 128.063 20.6099 127.936 20.7133C127.688 20.8569 127.585 20.7133 127.256 20.4433V20.4376ZM135.147 25.4469C134.836 25.5101 134.836 25.7973 134.755 25.9812C135.21 26.0444 134.634 26.2282 134.818 26.412C134.939 26.412 135.066 26.165 135.129 26.3488C135.129 26.4752 135.193 26.5556 135.106 26.5958H135.003C134.939 26.659 135.043 26.659 134.98 26.6992L135.124 26.7395L135.187 26.8027L135.371 26.7222C135.371 26.8658 135.164 26.9061 135.187 27.0324C135.435 27.1588 135.106 27.3426 135.291 27.5495C135.435 27.4231 135.417 27.6701 135.561 27.4231C135.603 27.4652 135.603 27.5073 135.561 27.5495H135.665L135.746 27.6126H135.872C136.183 27.3024 136.431 27.199 136.552 26.8084L136.488 26.7682C136.696 26.458 136.448 26.2512 136.592 25.9007C136.281 25.8203 136.344 25.5273 136.097 25.5101C135.849 25.0965 135.578 25.4067 135.273 25.4469H135.147ZM142.553 25.4469C142.242 25.5101 142.242 25.7973 142.161 25.9812C142.616 26.0444 142.04 26.2282 142.225 26.412C142.351 26.412 142.472 26.165 142.536 26.3488C142.536 26.4752 142.599 26.5556 142.513 26.5958H142.409C142.346 26.659 142.449 26.659 142.386 26.6992L142.53 26.7395L142.593 26.8027L142.778 26.7222C142.778 26.8658 142.57 26.9061 142.593 27.0324C142.841 27.1588 142.513 27.3426 142.697 27.5495C142.841 27.4231 142.824 27.6701 142.968 27.4231C143.01 27.4652 143.01 27.5073 142.968 27.5495H143.071L143.152 27.6126H143.279C143.59 27.3024 143.837 27.199 143.958 26.8084L143.895 26.7682C144.102 26.458 143.855 26.2512 143.999 25.9007C143.688 25.8203 143.751 25.5273 143.503 25.5101C143.256 25.0965 142.985 25.4067 142.68 25.4469H142.553ZM149.965 25.4469C149.654 25.5101 149.654 25.7973 149.573 25.9812C150.028 26.0444 149.452 26.2282 149.637 26.412C149.758 26.412 149.884 26.165 149.948 26.3488C149.948 26.4752 150.011 26.5556 149.925 26.5958H149.821C149.758 26.659 149.861 26.659 149.798 26.6992L149.942 26.7395L150.005 26.8027L150.19 26.7222C150.19 26.8658 149.982 26.9061 150.005 27.0324C150.253 27.1588 149.925 27.3426 150.109 27.5495C150.253 27.4231 150.236 27.6701 150.38 27.4231C150.422 27.4652 150.422 27.5073 150.38 27.5495H150.483L150.564 27.6126H150.691C151.002 27.3024 151.249 27.199 151.37 26.8084L151.307 26.7682C151.514 26.458 151.267 26.2512 151.411 25.9007C151.1 25.8203 151.163 25.5273 150.915 25.5101C150.668 25.0965 150.397 25.4067 150.092 25.4469H149.965Z" fill="white"/>
</svg>
