<svg width="85" height="36" viewBox="0 0 85 36" fill="none" xmlns="http://www.w3.org/2000/svg">
<g clip-path="url(#clip0_498_111)">
<path d="M74.3603 3.77592C74.8516 3.77592 75.2499 3.38448 75.2499 2.90163C75.2499 2.41877 74.8516 2.02734 74.3603 2.02734C73.869 2.02734 73.4707 2.41877 73.4707 2.90163C73.4707 3.38448 73.869 3.77592 74.3603 3.77592Z" fill="black"/>
<path fill-rule="evenodd" clip-rule="evenodd" d="M74.391 2.18143L74.3474 2.19429L74.3212 2.21143L74.2732 2.22857H74.1991L74.1729 2.26286L74.138 2.33143L74.1075 2.37857L74.077 2.42571L74.0595 2.46429L74.0377 2.49857L74.0203 2.52H73.9854V2.57143L73.9767 2.61429L73.968 2.64H73.9287L73.92 2.66143L73.9026 2.70857L73.8938 2.77714L73.872 2.82429L73.8502 2.89714L73.8677 2.97857L73.9113 3.02571L73.9462 3.07714L73.9941 3.12L74.0377 3.17571L74.0595 3.23143V3.28286L74.0421 3.32571L74.0683 3.35143L74.1119 3.33L74.1729 3.31714H74.2253L74.2471 3.33429L74.2732 3.37286L74.295 3.38571C74.3081 3.36 74.3125 3.33429 74.3125 3.33429L74.3386 3.31286L74.3953 3.3L74.4389 3.28286L74.4869 3.25714L74.5261 3.24429L74.5741 3.23143L74.6003 3.21429L74.6264 3.23571L74.6482 3.25714L74.6788 3.28286L74.7137 3.23143L74.7224 3.18857V3.12429V3.07286V2.92286L74.7398 2.88429L74.7573 2.83286L74.7747 2.79L74.7834 2.73L74.8009 2.65714V2.59286L74.7616 2.54571L74.7398 2.48143L74.7311 2.43429V2.39143L74.7224 2.35714L74.6875 2.34857H74.6482L74.6221 2.30143L74.5959 2.27571L74.5698 2.25429L74.5436 2.21571L74.5174 2.19429H74.4913L74.4607 2.18571H74.4346L74.3997 2.18143H74.391ZM72.6379 1.96714L72.6074 2.09571L72.5769 2.23286L72.5682 2.38286L72.5507 2.55857L72.542 2.70857V2.82857L72.5507 2.96571L72.542 3.12429V3.27429L72.5682 3.38571L72.6074 3.56143L72.6161 3.71143H72.6554V3.45L72.6379 3.33L72.6292 3.20143L72.6379 3.02571L72.6205 2.91429V2.76429L72.6118 2.54143L72.6205 2.38286L72.6379 2.25429V2.14286L72.6554 2.06143L72.6379 1.96714ZM76.1527 2.53714L76.1309 2.56286L76.1222 2.64L76.144 2.68714L76.1745 2.71714L76.2225 2.76H76.2574L76.2879 2.70857L76.301 2.64L76.2748 2.59286L76.2312 2.55429L76.2007 2.54571L76.1484 2.53714H76.1527ZM76.8548 6.21429L76.8112 6.23143V6.28286L76.8461 6.30857H76.8897L76.9376 6.28286L76.9202 6.24429L76.894 6.21857H76.8548V6.21429ZM76.6237 6.11571L76.5975 6.10286H76.567L76.5234 6.11571L76.4754 6.12429V6.15857L76.4841 6.20571L76.5234 6.22286H76.5626L76.6019 6.21857L76.6411 6.23571L76.6847 6.24857L76.7153 6.21429V6.16286L76.6891 6.13714L76.6498 6.12857L76.6237 6.11571ZM79.4756 4.96714L79.4364 4.98429L79.4102 5.02286L79.3971 5.04429H79.371H79.3448L79.323 5.05286L79.3055 5.07857L79.2968 5.12143L79.3186 5.16429L79.3492 5.18571H79.3884L79.4146 5.13857H79.4669L79.5105 5.13429L79.5497 5.12143L79.5934 5.10857L79.6195 5.08286L79.5934 5.04857L79.5672 5.02714L79.5454 5.01L79.5192 4.98857L79.4931 4.97143H79.4669L79.4756 4.96714ZM79.3012 6.15429H79.275H79.2489H79.2183L79.1878 6.16286H79.166L79.1529 6.18857L79.1791 6.21429H79.227L79.2576 6.21H79.3055L79.3274 6.18857V6.16286L79.3012 6.15429ZM80.7228 5.50714L80.7097 5.55L80.7184 5.58857L80.7402 5.62286L80.7708 5.63571L80.8187 5.61V5.56286L80.81 5.52L80.7751 5.49857L80.7228 5.51143V5.50714ZM82.9948 5.01429L82.9293 5.04857L82.8596 5.12571L82.7636 5.20286L82.6764 5.29286L82.6066 5.33571L82.563 5.37857L82.5107 5.41286L82.4845 5.46429L82.454 5.49L82.4104 5.50286L82.3668 5.51571L82.3232 5.55L82.297 5.58857L82.2665 5.62286L82.236 5.64429L82.2142 5.66571L82.1662 5.73L82.127 5.74286L82.1052 5.76857L82.0877 5.81143L82.0615 5.83286L82.0354 5.87571L82.0179 5.93143L82.0615 5.91857L82.1357 5.84143L82.2098 5.79429L82.2709 5.74714L82.3537 5.69571L82.3973 5.67429L82.4279 5.61429L82.4715 5.59286L82.4976 5.55L82.5325 5.53714H82.5587L82.5674 5.49857L82.5936 5.44286L82.6241 5.40857L82.6764 5.37L82.7287 5.32714L82.7767 5.28L82.8116 5.23286L82.8683 5.18143L82.9206 5.13429L82.9468 5.10857L82.9773 5.07429V5.01L82.9948 5.01429ZM80.6356 3.38143L80.6138 3.40286L80.6051 3.45429L80.5832 3.47571L80.5571 3.48857L80.5178 3.48L80.483 3.45429L80.4611 3.46714L80.4524 3.50571V3.55714V3.59143V3.64286L80.4873 3.62571L80.5178 3.57429L80.544 3.55714H80.5832L80.6225 3.56143L80.6487 3.53571L80.6661 3.48857V3.43286L80.6487 3.39857L80.6225 3.38571L80.6356 3.38143ZM81.2941 2.80286L81.2417 2.81571L81.1938 2.86286L81.185 2.90571V2.95714L81.2243 2.99571H81.2548L81.2941 2.98286L81.3202 2.93143L81.3377 2.88429V2.83286L81.2897 2.80714L81.2941 2.80286ZM83.7797 1.59L83.7143 1.57286H83.6532L83.5922 1.59L83.5355 1.60286L83.4744 1.62L83.4352 1.62857H83.4003L83.3741 1.63714L83.3218 1.65857L83.3131 1.71857L83.3523 1.71L83.4265 1.70143H83.4919C83.518 1.70143 83.5573 1.72286 83.5573 1.72286L83.614 1.73571L83.6532 1.74429L83.7012 1.76143L83.7579 1.77857L83.8059 1.77L83.8233 1.70571V1.64571L83.7797 1.58143V1.59ZM74.8576 1.53L74.7834 1.54714L74.7311 1.58143L74.7137 1.62857L74.7006 1.67571L74.6744 1.69714L74.6613 1.72286V1.77L74.6919 1.78286L74.7398 1.77429L74.766 1.74L74.8009 1.70571H74.8358L74.8488 1.67143V1.61143V1.57286V1.52143L74.8576 1.53ZM70.523 0.75L70.7148 0.685714H70.8762L71.1335 0.612857L71.3646 0.548571L71.5652 0.522857L71.805 0.475714L72.0231 0.411429L72.1975 0.355714L72.3588 0.338571L72.5987 0.355714L72.7906 0.347143L73.0086 0.338571H73.1525L73.2092 0.274286C73.2397 0.218571 73.2659 0.162857 73.2964 0.107143C73.34 0.09 73.3836 0.0771429 73.4229 0.06H73.5973C73.6889 0.0471429 73.7805 0.0342857 73.8677 0.0214286C73.9374 0.0171429 73.9941 0.0128571 74.0639 0.00857143C74.0988 0.00857143 74.1468 0.0171429 74.1816 0.0171429C74.2863 0.0514286 74.391 0.0728571 74.4956 0.107143C74.6221 0.158571 74.7485 0.214286 74.8707 0.265714C74.9448 0.291429 75.0102 0.33 75.0843 0.355714C75.1759 0.437143 75.2762 0.51 75.3678 0.591429C75.4201 0.642857 75.4724 0.698571 75.5291 0.75C75.6163 0.844286 75.7036 0.942857 75.7951 1.03714C75.8344 1.09286 75.8736 1.14857 75.9172 1.20429C75.9739 1.26857 76.0306 1.33286 76.0873 1.39714L76.2399 1.57286L76.4144 1.76571L76.5408 1.90286L76.7327 2.10857L76.9246 2.31429L77.0598 2.47286L77.2124 2.61L77.3258 2.70429C77.3258 2.70429 77.4043 2.74286 77.4479 2.75143C77.4871 2.76 77.583 2.77714 77.583 2.77714L77.679 2.76L77.7836 2.66571L77.9275 2.56286L78.054 2.46857L78.0933 2.43857L78.2851 2.31L78.5075 2.18143L78.6994 2.07857L78.9 1.97571L79.1224 1.86429L79.275 1.79143L79.4495 1.69714L79.7547 1.54714L80.0251 1.41L80.3696 1.23429L80.7228 1.10571L81.0499 0.968571L81.3202 0.848571L81.5993 0.754286L81.8697 0.651429L82.2403 0.557143L82.5674 0.454286L82.9599 0.342857L83.2564 0.27L83.6271 0.158571L83.8364 0.102857L84.1809 0.0557143L84.46 0.0385714L84.6518 0L84.7783 0.158571L84.8568 0.317143L84.8742 1.11429L84.8917 1.39286L84.9571 1.52143L84.9876 1.95857L84.9789 2.25429L84.9135 2.41286L84.7696 2.65286L84.6562 2.89286L84.5515 3.06L84.4164 3.32143L84.3117 3.60857L84.1591 3.85714L84.0937 4.08857L84.0675 4.33714L83.9803 4.52143L83.9018 4.68L83.8059 4.65L83.7797 4.58571L83.6445 4.8L83.5573 5.01429L83.4526 5.16429L83.4221 5.33143V5.49L83.3436 5.52857L83.2172 5.64L83.1387 5.75143V5.92714L83.0514 5.98286L82.925 5.96571L82.829 6.00429L82.7331 6.09857L82.5892 6.17143L82.4845 6.25286L82.3712 6.26143L82.345 6.39L82.297 6.51L82.1618 6.63L82.0267 6.73286L81.9046 6.81429L81.7781 6.87L81.6647 6.90857L81.5775 6.95571H81.4423L81.2897 6.98571L81.185 7.08857L81.0629 7.15286L80.9844 7.24714L80.8493 7.30286L80.6661 7.40571L80.5135 7.45286L80.3129 7.50857L80.1995 7.54714L80.1341 7.59429L80.0948 7.67571L80.0076 7.70143L79.8943 7.69286H79.807L79.7024 7.71L79.5672 7.77429L79.4146 7.83L79.2707 7.90286L79.0875 7.95857L78.961 8.00571L78.8651 8.01429L78.7866 8.05286H78.682L78.634 8.09143L78.6253 8.29714L78.6514 8.50286L78.6602 8.71714L78.6863 8.91L78.7038 9.15857V9.27857L78.7343 9.46286V9.54429L78.7605 9.72L78.7779 9.84857L78.8826 9.85714L79.0352 9.89571L79.1791 10.0157L79.3535 10.2086L79.5454 10.4014L79.7198 10.6071L79.9597 10.8L80.169 10.9757L80.3434 11.1429L80.5658 11.3014L80.6051 11.4386L80.5963 11.6871V11.8543L80.5484 11.9186L80.2998 11.79L80.0687 11.6143L79.8463 11.3829L79.6152 11.2071L79.3753 10.9843L79.1922 10.7614L79.0483 10.6029L78.961 10.4657L78.8956 10.3929L78.8389 10.41L78.7997 10.5857L78.6645 10.7057L78.4814 10.8343L78.3375 11.0271L78.1369 11.2414L77.9624 11.49L77.8098 11.6571L77.6877 11.7686L77.5743 11.8886L77.4784 11.9357L77.3345 11.8329L77.2473 11.7214L77.2211 11.5929C77.2211 11.5929 77.2778 11.4257 77.3083 11.3786C77.3388 11.3314 77.4522 11.1386 77.4522 11.1386L77.6223 10.9243C77.6223 10.9243 77.7444 10.7657 77.7924 10.7314C77.8403 10.6929 77.9668 10.5557 77.9668 10.5557L78.1107 10.4186L78.2241 10.2686L78.3113 10.14L78.3593 10.0371L78.3898 9.72L78.3811 9.48857L78.3636 9.24L78.2851 9.12V8.25857L78.2764 8.13857H78.1325L77.9406 8.20286L77.7793 8.17714L77.5874 8.12143L77.3301 8.04L77.1208 7.93714L76.9507 7.89L76.7676 7.85143L76.615 7.86857L76.4885 7.89429L76.2966 7.92L76.0786 7.91143L75.83 7.88571L75.5509 7.83L75.3503 7.77429L75.1672 7.67143L75.0407 7.60714L74.8707 7.53429L74.6526 7.44L74.4215 7.23429L74.1991 7.05857L74.029 6.87429L73.7979 6.64286L73.5581 6.33857L73.3269 6.04286L73.1525 5.80286L73.0261 5.61857L72.8996 5.33143L72.747 4.98857L72.6249 4.69286L72.5464 4.37571L72.4025 4.07143L72.3545 3.84L72.3065 3.65571L72.228 3.56143L72.1713 3.38571L72.1626 3.15429L72.1365 2.81143L72.1626 2.58857L72.1713 2.36571L72.2106 2.19857L72.2673 2.03143L72.324 1.85571L72.3807 1.69714L72.4548 1.50429C72.4722 1.46143 72.494 1.41857 72.5115 1.37571C72.5333 1.34143 72.5464 1.31143 72.5682 1.27714C72.5551 1.25143 72.5376 1.22143 72.5246 1.19571C72.4722 1.19571 72.433 1.19143 72.385 1.19143L72.1844 1.23857L71.9533 1.30286L71.7701 1.35857L71.5303 1.40571L71.3602 1.42286L71.1204 1.40571L70.9198 1.38857H70.7018L70.6058 1.35L70.5099 1.23L70.5273 1.09286V0.964286L70.5361 0.758571L70.523 0.75Z" fill="#F9BE10"/>
<path d="M57.7015 6.53027H56.197V11.9474H55.0938V6.53027H53.6111V5.70312H57.7015V6.53027ZM52.8393 11.9474H49.0846V5.70312H52.7695V6.53027H50.1966V8.31312H52.7084V9.14027H50.1966V11.1117H52.8393V11.9474ZM48.2605 5.70312L45.9929 8.69884L48.2299 11.9474H46.9261L45.0291 9.20884H44.8373V11.9474H43.7253V5.70312H44.8373V8.3817H44.9332L46.9566 5.70312H48.2692H48.2605ZM41.0434 8.13741V7.11312C41.0434 6.72312 40.8864 6.53027 40.5681 6.53027H39.2773V8.72884H40.5681C40.8646 8.72884 41.0216 8.5317 41.0434 8.13741ZM42.8488 11.9474H41.6059L40.3369 9.55598H39.2729V11.9474H38.1697V5.70312H40.7905C41.1611 5.70312 41.4838 5.8317 41.7498 6.08884C42.0158 6.34598 42.151 6.64598 42.151 6.98455V8.27455C42.151 8.50598 42.09 8.72455 41.9635 8.93027C41.8371 9.13598 41.6713 9.29455 41.462 9.40598L42.8488 11.9474ZM35.4136 9.32455L34.6941 6.65884L33.979 9.32455H35.4136ZM37.2931 11.9474H36.1681L35.6448 10.1517H33.7566L33.2333 11.9474H32.1038L33.9048 5.70312H35.4965L37.2975 11.9474H37.2931ZM31.1968 11.9474H30.0848V7.74312L29.0687 9.57312H28.419L27.4029 7.74312V11.9474H26.2909V5.70312H27.355L28.7417 8.19313L30.1284 5.70312H31.1924V11.9474H31.1968ZM21.481 8.13741V7.11312C21.481 6.72312 21.324 6.53027 21.0057 6.53027H19.7149V8.72884H21.0057C21.3022 8.72884 21.4592 8.5317 21.481 8.13741ZM23.2907 11.9474H22.0479L20.7789 9.55598H19.7149V11.9474H18.6116V5.70312H21.2324C21.6031 5.70312 21.9258 5.8317 22.1918 6.08884C22.4578 6.34598 22.593 6.64598 22.593 6.98455V8.27455C22.593 8.50598 22.532 8.72455 22.4055 8.93027C22.279 9.13598 22.1133 9.29455 21.904 9.40598L23.2907 11.9474ZM17.6087 11.9474H13.854V5.70312H17.5389V6.53027H14.966V8.31312H17.4778V9.14027H14.966V11.1117H17.6087V11.9474ZM13.0037 5.70312L11.1896 11.9474H10.2433L8.43797 5.70312H9.54996L10.723 9.95455L11.8961 5.70312H13.008H13.0037ZM7.83182 11.9474H5.61219V11.1117H6.17037V6.53027H5.61219V5.70312H7.83182V6.53027H7.27364V11.1117H7.83182V11.9474ZM3.17016 8.13741V7.11312C3.17016 6.72312 3.01318 6.53027 2.69484 6.53027H1.40405V8.72884H2.69484C2.99137 8.72884 3.14836 8.5317 3.17016 8.13741ZM4.97552 11.9474H3.7327L2.46372 9.55598H1.39969V11.9474H0.300781V5.70312H2.9216C3.29226 5.70312 3.61496 5.8317 3.88097 6.08884C4.14697 6.34598 4.28216 6.64598 4.28216 6.98455V8.27455C4.28216 8.50598 4.21675 8.72455 4.09465 8.93027C3.96818 9.13598 3.80247 9.29455 3.59316 9.40598L4.97988 11.9474H4.97552Z" fill="black"/>
<path d="M1.12989 16.7969C1.12989 16.7969 0.759227 17.3326 0.410366 17.4526V19.4969C0.410366 19.4969 1.47439 19.9597 1.67063 20.204L7.21316 20.3497L7.60999 20.984L7.53149 22.724L7.32654 22.9426H0.249018L0.0440621 23.144L-0.00390625 25.2226C-0.00390625 25.2226 0.580436 26.354 0.571715 26.6926C0.562993 27.0312 0.728702 31.544 0.728702 31.544L1.32177 32.2083C1.32177 32.2083 3.77251 31.5226 5.79155 31.4497C7.81494 31.3769 10.6146 31.3297 10.6146 31.3297C10.6146 31.3297 10.837 30.9483 11.2992 30.7469L11.3559 28.274L11.1902 28.1112C11.1902 28.1112 5.24209 28.3683 4.42663 28.5869L4.09085 28.2697V26.2897L4.30453 26.054L10.6494 26.0369C10.6494 26.0369 10.898 25.5526 11.0855 25.5526L11.1684 18.3483L10.5361 17.474C10.5361 17.474 5.51246 17.2083 1.11681 16.8012L1.12989 16.7969Z" fill="black"/>
<path d="M14.8183 17.5C14.8183 17.5 14.5916 17.8729 14.2078 17.9629C14.2078 17.9629 14.0639 23.38 14.1555 24.3957C14.2471 25.4071 14.2863 31.7929 14.1729 32.2986C14.1729 32.2986 15.0364 32.6586 15.0538 32.7357L15.5727 32.4614C15.5727 32.4614 15.8736 30.6143 16.9769 29.8257L17.4173 19.3471L17.1034 18.4686C17.1034 18.4686 15.6818 18.0871 14.8096 17.5086L14.8183 17.5Z" fill="black"/>
<path d="M52.6441 18.9595C52.631 18.7238 52.4435 18.5352 52.2037 18.5138C51.6499 18.4667 50.721 18.3595 50.5379 18.1795L44.5244 17.9609C44.5244 17.9609 43.8179 18.7624 43.4473 18.9809C43.4473 18.9809 43.783 29.8495 43.7089 30.1409L44.9343 31.2724C44.9343 31.2724 50.2762 30.6167 51.4275 30.7238L52.5395 30.8181L53.2808 29.6309L52.6398 18.9595H52.6441ZM49.4259 28.2467L47.3458 28.4309L47.1234 28.2467L46.8617 20.9181L47.3065 20.5538L49.5349 20.9181L49.6832 27.8009L49.4215 28.2467H49.4259Z" fill="black"/>
<path d="M31.8812 18.9583C31.8812 18.9583 31.4146 18.6155 31.2881 18.3241C31.2881 18.3241 29.4828 18.1269 28.8417 17.6641C28.8417 17.6641 28.4405 18.1526 28.0437 18.2041L28.0175 21.2683L27.5989 21.8255L25.2441 21.9369L24.7819 21.4355L24.7077 18.8812C24.7077 18.8812 24.5028 18.7869 24.2542 18.3498C24.2542 18.3498 23.2251 18.5169 21.9386 17.8569C21.9386 17.8569 21.5375 18.4141 21.1406 18.5641C21.1406 18.5641 21.9561 30.1141 21.9343 30.3069L22.5012 31.2069C22.5012 31.2069 24.3327 31.0141 25.6409 31.0869C25.6409 31.0869 28.881 30.9412 29.7226 31.0869C30.5642 31.2326 31.4538 31.0869 31.4538 31.0869L31.8725 30.4526C31.8725 30.4526 31.6501 19.8283 31.8725 18.9541L31.8812 18.9583ZM27.9216 28.3655L25.5842 28.5498L25.3618 28.3655L25.1002 24.9841L25.545 24.6198L28.0306 24.9112L28.1789 27.9198L27.9173 28.3655H27.9216Z" fill="black"/>
<path d="M55.7665 17.2188C55.7665 17.2188 55.4351 17.6173 54.877 18.0202C54.877 18.0202 55.7796 30.2173 55.5965 32.223L56.6736 32.4673C56.6736 32.4673 57.3059 30.7273 58.3438 29.9645L58.6795 25.2202C58.6795 25.2202 61.2786 24.6716 61.5751 24.8902L62.1333 24.4445L62.5781 22.773L61.7975 22.1516C61.7975 22.1516 59.2726 22.9187 58.4964 22.7345C58.4964 22.7345 58.2347 19.1259 58.4964 18.393C58.4964 18.393 58.069 17.8359 57.8641 17.8188C57.6591 17.8016 56.4119 17.523 55.7709 17.2188H55.7665Z" fill="black"/>
<path d="M39.4298 19.1985L39.046 18.3499C39.046 18.3499 37.5983 18.0842 36.6825 17.5742C36.6825 17.5742 36.4863 17.9642 36.1156 18.0842C36.1156 18.0842 36.2726 20.8871 36.4252 22.8285C35.431 22.9614 33.425 22.6828 33.425 22.6828L32.7578 23.4156L33.4686 24.9971L33.9614 25.2756C34.0312 25.3142 34.1184 25.3185 34.1925 25.2928C34.6242 25.1514 36.0415 25.1856 36.6781 25.2071C36.8875 27.1314 37.2276 31.6999 37.1622 32.1371C37.1622 32.1371 38.0518 32.4285 38.0779 32.5014L38.5707 32.1842C38.5707 32.1842 38.719 30.3199 39.7568 29.4456L39.4254 19.1985H39.4298Z" fill="black"/>
<path d="M73.3041 23.0438L73.8099 22.7096H74.996C74.996 22.7096 75.1923 23.9396 75.3013 24.9296C75.4103 25.9196 75.3013 27.8396 75.3013 27.8396C75.3013 27.8396 76.4438 27.5181 76.5964 27.6038C76.7491 27.6896 77.2767 25.3624 78.0878 24.7367C78.0878 24.7367 77.9352 18.7667 78.175 17.2753C78.175 17.2753 76.047 16.671 75.7635 16.3281C75.7635 16.3281 75.3013 16.8681 75.0178 16.9538C75.0178 16.9538 74.9088 19.7996 74.9742 20.3181C74.9742 20.3181 73.3302 20.3396 73.086 20.361L73.1514 17.8367C73.1514 17.8367 72.5584 17.3824 72.1441 17.0396C72.1441 17.0396 66.9112 17.1253 65.3762 16.7824C65.3762 16.7824 64.9706 17.5153 64.709 17.5796C64.709 17.5796 65.0578 18.9596 65.1058 19.4653L65.5026 19.7781C65.5026 19.7781 68.3764 19.521 68.9258 19.671L69.7151 20.1467C69.7151 20.1467 69.8242 21.5696 69.7151 21.6767C69.7151 21.6767 67.7833 22.0881 65.5899 21.9981C65.5899 21.9981 65.4023 22.6667 65.0927 22.7524L65.8079 24.6081L66.4489 24.8567C67.2644 24.801 69.1875 24.6638 69.4753 24.7538L70.0509 25.1138C70.0509 25.1138 70.2253 27.9253 70.112 28.2681H71.0103C71.0103 28.2681 72.5976 27.051 73.1165 26.8238C73.1165 26.8238 72.9857 23.5581 73.3128 23.0396L73.3041 23.0438Z" fill="black"/>
<path d="M82.7151 16.9324C82.7151 16.9324 81.3546 16.8681 80.3036 16.3281C80.3036 16.3281 79.8632 17.0396 79.6016 17.2538C79.6016 17.2538 80.2382 25.0153 79.8632 26.5667C79.8632 26.5667 80.0376 27.6467 80.0376 28.0324L80.6961 28.2681C80.6961 28.2681 81.8822 25.9281 82.4709 25.4696C82.4709 25.4696 82.6454 23.0267 82.58 21.7538C82.5146 20.481 82.7108 16.9238 82.7108 16.9238L82.7151 16.9324Z" fill="black"/>
<path d="M77.6482 31.0981C77.5828 31.0424 77.5348 30.9781 77.4956 30.9052C77.356 30.6438 77.1554 30.0524 77.3081 29.7695L75.337 28.2695C75.337 28.2695 75.0884 28.741 74.7091 28.9981C74.7091 28.9981 73.4488 31.5352 70.623 34.711C70.575 34.8352 70.5532 34.9595 70.4922 35.0881L71.1332 35.851L71.7263 36.001C71.7263 36.001 73.2656 35.2424 74.2512 34.7924L75.8995 32.9795C75.8995 32.9795 78.2587 35.0495 78.3895 35.461C78.3895 35.461 79.8286 35.7438 80.0553 35.8124L80.7531 35.551C80.7531 35.551 81.2327 35.1481 81.477 34.8695C81.477 34.8695 81.1979 34.291 81.1804 34.1495L77.6438 31.0981H77.6482Z" fill="black"/>
</g>
<defs>
<clipPath id="clip0_498_111">
<rect width="85" height="36" fill="white"/>
</clipPath>
</defs>
</svg>
