<svg width="195" height="84" viewBox="0 0 195 84" fill="none" xmlns="http://www.w3.org/2000/svg">
<g clip-path="url(#clip0_498_91)">
<path d="M170.52 8.81047C171.647 8.81047 172.56 7.89713 172.56 6.77047C172.56 5.64381 171.647 4.73047 170.52 4.73047C169.394 4.73047 168.48 5.64381 168.48 6.77047C168.48 7.89713 169.394 8.81047 170.52 8.81047Z" fill="black"/>
<path fill-rule="evenodd" clip-rule="evenodd" d="M170.589 5.09L170.489 5.12L170.429 5.16L170.319 5.2H170.149L170.089 5.28L170.009 5.44L169.939 5.55L169.869 5.66L169.829 5.75L169.779 5.83L169.739 5.88H169.659V6L169.639 6.1L169.619 6.16H169.529L169.509 6.21L169.469 6.32L169.449 6.48L169.399 6.59L169.349 6.76L169.389 6.95L169.489 7.06L169.569 7.18L169.679 7.28L169.779 7.41L169.829 7.54V7.66L169.789 7.76L169.849 7.82L169.949 7.77L170.089 7.74H170.209L170.259 7.78L170.319 7.87L170.369 7.9C170.399 7.84 170.409 7.78 170.409 7.78L170.469 7.73L170.599 7.7L170.699 7.66L170.809 7.6L170.899 7.57L171.009 7.54L171.069 7.5L171.129 7.55L171.179 7.6L171.249 7.66L171.329 7.54L171.349 7.44V7.29V7.17V6.82L171.389 6.73L171.429 6.61L171.469 6.51L171.489 6.37L171.529 6.2V6.05L171.439 5.94L171.389 5.79L171.369 5.68V5.58L171.349 5.5L171.269 5.48H171.179L171.119 5.37L171.059 5.31L170.999 5.26L170.939 5.17L170.879 5.12H170.819L170.749 5.1H170.689L170.609 5.09H170.589ZM166.569 4.59L166.499 4.89L166.429 5.21L166.409 5.56L166.369 5.97L166.349 6.32V6.6L166.369 6.92L166.349 7.29V7.64L166.409 7.9L166.499 8.31L166.519 8.66H166.609V8.05L166.569 7.77L166.549 7.47L166.569 7.06L166.529 6.8V6.45L166.509 5.93L166.529 5.56L166.569 5.26V5L166.609 4.81L166.569 4.59ZM174.629 5.92L174.579 5.98L174.559 6.16L174.609 6.27L174.679 6.34L174.789 6.44H174.869L174.939 6.32L174.969 6.16L174.909 6.05L174.809 5.96L174.739 5.94L174.619 5.92H174.629ZM176.239 14.5L176.139 14.54V14.66L176.219 14.72H176.319L176.429 14.66L176.389 14.57L176.329 14.51H176.239V14.5ZM175.709 14.27L175.649 14.24H175.579L175.479 14.27L175.369 14.29V14.37L175.389 14.48L175.479 14.52H175.569L175.659 14.51L175.749 14.55L175.849 14.58L175.919 14.5V14.38L175.859 14.32L175.769 14.3L175.709 14.27ZM182.249 11.59L182.159 11.63L182.099 11.72L182.069 11.77H182.009H181.949L181.899 11.79L181.859 11.85L181.839 11.95L181.889 12.05L181.959 12.1H182.049L182.109 11.99H182.229L182.329 11.98L182.419 11.95L182.519 11.92L182.579 11.86L182.519 11.78L182.459 11.73L182.409 11.69L182.349 11.64L182.289 11.6H182.229L182.249 11.59ZM181.849 14.36H181.789H181.729H181.659L181.589 14.38H181.539L181.509 14.44L181.569 14.5H181.679L181.749 14.49H181.859L181.909 14.44V14.38L181.849 14.36ZM185.109 12.85L185.079 12.95L185.099 13.04L185.149 13.12L185.219 13.15L185.329 13.09V12.98L185.309 12.88L185.229 12.83L185.109 12.86V12.85ZM190.319 11.7L190.169 11.78L190.009 11.96L189.789 12.14L189.589 12.35L189.429 12.45L189.329 12.55L189.209 12.63L189.149 12.75L189.079 12.81L188.979 12.84L188.879 12.87L188.779 12.95L188.719 13.04L188.649 13.12L188.579 13.17L188.529 13.22L188.419 13.37L188.329 13.4L188.279 13.46L188.239 13.56L188.179 13.61L188.119 13.71L188.079 13.84L188.179 13.81L188.349 13.63L188.519 13.52L188.659 13.41L188.849 13.29L188.949 13.24L189.019 13.1L189.119 13.05L189.179 12.95L189.259 12.92H189.319L189.339 12.83L189.399 12.7L189.469 12.62L189.589 12.53L189.709 12.43L189.819 12.32L189.899 12.21L190.029 12.09L190.149 11.98L190.209 11.92L190.279 11.84V11.69L190.319 11.7ZM184.909 7.89L184.859 7.94L184.839 8.06L184.789 8.11L184.729 8.14L184.639 8.12L184.559 8.06L184.509 8.09L184.489 8.18V8.3V8.38V8.5L184.569 8.46L184.639 8.34L184.699 8.3H184.789L184.879 8.31L184.939 8.25L184.979 8.14V8.01L184.939 7.93L184.879 7.9L184.909 7.89ZM186.419 6.54L186.299 6.57L186.189 6.68L186.169 6.78V6.9L186.259 6.99H186.329L186.419 6.96L186.479 6.84L186.519 6.73V6.61L186.409 6.55L186.419 6.54ZM192.119 3.71L191.969 3.67H191.829L191.689 3.71L191.559 3.74L191.419 3.78L191.329 3.8H191.249L191.189 3.82L191.069 3.87L191.049 4.01L191.139 3.99L191.309 3.97H191.459C191.519 3.97 191.609 4.02 191.609 4.02L191.739 4.05L191.829 4.07L191.939 4.11L192.069 4.15L192.179 4.13L192.219 3.98V3.84L192.119 3.69V3.71ZM171.659 3.57L171.489 3.61L171.369 3.69L171.329 3.8L171.299 3.91L171.239 3.96L171.209 4.02V4.13L171.279 4.16L171.389 4.14L171.449 4.06L171.529 3.98H171.609L171.639 3.9V3.76V3.67V3.55L171.659 3.57ZM161.719 1.75L162.159 1.6H162.529L163.119 1.43L163.649 1.28L164.109 1.22L164.659 1.11L165.159 0.96L165.559 0.83L165.929 0.79L166.479 0.83L166.919 0.81L167.419 0.79H167.749L167.879 0.64C167.949 0.51 168.009 0.38 168.079 0.25C168.179 0.21 168.279 0.18 168.369 0.14H168.769C168.979 0.11 169.189 0.08 169.389 0.05C169.549 0.04 169.679 0.03 169.839 0.02C169.919 0.02 170.029 0.04 170.109 0.04C170.349 0.12 170.589 0.17 170.829 0.25C171.119 0.37 171.409 0.5 171.689 0.62C171.859 0.68 172.009 0.77 172.179 0.83C172.389 1.02 172.619 1.19 172.829 1.38C172.949 1.5 173.069 1.63 173.199 1.75C173.399 1.97 173.599 2.2 173.809 2.42C173.899 2.55 173.989 2.68 174.089 2.81C174.219 2.96 174.349 3.11 174.479 3.26L174.829 3.67L175.229 4.12L175.519 4.44L175.959 4.92L176.399 5.4L176.709 5.77L177.059 6.09L177.319 6.31C177.319 6.31 177.499 6.4 177.599 6.42C177.689 6.44 177.909 6.48 177.909 6.48L178.129 6.44L178.369 6.22L178.699 5.98L178.989 5.76L179.079 5.69L179.519 5.39L180.029 5.09L180.469 4.85L180.929 4.61L181.439 4.35L181.789 4.18L182.189 3.96L182.889 3.61L183.509 3.29L184.299 2.88L185.109 2.58L185.859 2.26L186.479 1.98L187.119 1.76L187.739 1.52L188.589 1.3L189.339 1.06L190.239 0.8L190.919 0.63L191.769 0.37L192.249 0.24L193.039 0.13L193.679 0.09L194.119 0L194.409 0.37L194.589 0.74L194.629 2.6L194.669 3.25L194.819 3.55L194.889 4.57L194.869 5.26L194.719 5.63L194.389 6.19L194.129 6.75L193.889 7.14L193.579 7.75L193.339 8.42L192.989 9L192.839 9.54L192.779 10.12L192.579 10.55L192.399 10.92L192.179 10.85L192.119 10.7L191.809 11.2L191.609 11.7L191.369 12.05L191.299 12.44V12.81L191.119 12.9L190.829 13.16L190.649 13.42V13.83L190.449 13.96L190.159 13.92L189.939 14.01L189.719 14.23L189.389 14.4L189.149 14.59L188.889 14.61L188.829 14.91L188.719 15.19L188.409 15.47L188.099 15.71L187.819 15.9L187.529 16.03L187.269 16.12L187.069 16.23H186.759L186.409 16.3L186.169 16.54L185.889 16.69L185.709 16.91L185.399 17.04L184.979 17.28L184.629 17.39L184.169 17.52L183.909 17.61L183.759 17.72L183.669 17.91L183.469 17.97L183.209 17.95H183.009L182.769 17.99L182.459 18.14L182.109 18.27L181.779 18.44L181.359 18.57L181.069 18.68L180.849 18.7L180.669 18.79H180.429L180.319 18.88L180.299 19.36L180.359 19.84L180.379 20.34L180.439 20.79L180.479 21.37V21.65L180.549 22.08V22.27L180.609 22.68L180.649 22.98L180.889 23L181.239 23.09L181.569 23.37L181.969 23.82L182.409 24.27L182.809 24.75L183.359 25.2L183.839 25.61L184.239 26L184.749 26.37L184.839 26.69L184.819 27.27V27.66L184.709 27.81L184.139 27.51L183.609 27.1L183.099 26.56L182.569 26.15L182.019 25.63L181.599 25.11L181.269 24.74L181.069 24.42L180.919 24.25L180.789 24.29L180.699 24.7L180.389 24.98L179.969 25.28L179.639 25.73L179.179 26.23L178.779 26.81L178.429 27.2L178.149 27.46L177.889 27.74L177.669 27.85L177.339 27.61L177.139 27.35L177.079 27.05C177.079 27.05 177.209 26.66 177.279 26.55C177.349 26.44 177.609 25.99 177.609 25.99L177.999 25.49C177.999 25.49 178.279 25.12 178.389 25.04C178.499 24.95 178.789 24.63 178.789 24.63L179.119 24.31L179.379 23.96L179.579 23.66L179.689 23.42L179.759 22.68L179.739 22.14L179.699 21.56L179.519 21.28V19.27L179.499 18.99H179.169L178.729 19.14L178.359 19.08L177.919 18.95L177.329 18.76L176.849 18.52L176.459 18.41L176.039 18.32L175.689 18.36L175.399 18.42L174.959 18.48L174.459 18.46L173.889 18.4L173.249 18.27L172.789 18.14L172.369 17.9L172.079 17.75L171.689 17.58L171.189 17.36L170.659 16.88L170.149 16.47L169.759 16.04L169.229 15.5L168.679 14.79L168.149 14.1L167.749 13.54L167.459 13.11L167.169 12.44L166.819 11.64L166.539 10.95L166.359 10.21L166.029 9.5L165.919 8.96L165.809 8.53L165.629 8.31L165.499 7.9L165.479 7.36L165.419 6.56L165.479 6.04L165.499 5.52L165.589 5.13L165.719 4.74L165.849 4.33L165.979 3.96L166.149 3.51C166.189 3.41 166.239 3.31 166.279 3.21C166.329 3.13 166.359 3.06 166.409 2.98C166.379 2.92 166.339 2.85 166.309 2.79C166.189 2.79 166.099 2.78 165.989 2.78L165.529 2.89L164.999 3.04L164.579 3.17L164.029 3.28L163.639 3.32L163.089 3.28L162.629 3.24H162.129L161.909 3.15L161.689 2.87L161.729 2.55V2.25L161.749 1.77L161.719 1.75Z" fill="#F9BE10"/>
<path d="M132.319 15.2386H128.869V27.8786H126.339V15.2386H122.939V13.3086H132.319V15.2386ZM121.169 27.8786H112.559V13.3086H121.009V15.2386H115.109V19.3986H120.869V21.3286H115.109V25.9286H121.169V27.8786ZM110.669 13.3086L105.469 20.2986L110.599 27.8786H107.609L103.259 21.4886H102.819V27.8786H100.269V13.3086H102.819V19.5586H103.039L107.679 13.3086H110.689H110.669ZM94.1192 18.9886V16.5986C94.1192 15.6886 93.7592 15.2386 93.0292 15.2386H90.0692V20.3686H93.0292C93.7092 20.3686 94.0692 19.9086 94.1192 18.9886ZM98.2592 27.8786H95.4092L92.4992 22.2986H90.0592V27.8786H87.5292V13.3086H93.5392C94.3892 13.3086 95.1292 13.6086 95.7392 14.2086C96.3492 14.8086 96.6592 15.5086 96.6592 16.2986V19.3086C96.6592 19.8486 96.5192 20.3586 96.2292 20.8386C95.9392 21.3186 95.5592 21.6886 95.0792 21.9486L98.2592 27.8786ZM81.2092 21.7586L79.5592 15.5386L77.9192 21.7586H81.2092ZM85.5192 27.8786H82.9392L81.7392 23.6886H77.4092L76.2092 27.8786H73.6192L77.7492 13.3086H81.3992L85.5292 27.8786H85.5192ZM71.5392 27.8786H68.9892V18.0686L66.6592 22.3386H65.1692L62.8392 18.0686V27.8786H60.2892V13.3086H62.7292L65.9092 19.1186L69.0892 13.3086H71.5292V27.8786H71.5392ZM49.2592 18.9886V16.5986C49.2592 15.6886 48.8992 15.2386 48.1692 15.2386H45.2092V20.3686H48.1692C48.8492 20.3686 49.2092 19.9086 49.2592 18.9886ZM53.4092 27.8786H50.5592L47.6492 22.2986H45.2092V27.8786H42.6792V13.3086H48.6892C49.5392 13.3086 50.2792 13.6086 50.8892 14.2086C51.4992 14.8086 51.8092 15.5086 51.8092 16.2986V19.3086C51.8092 19.8486 51.6692 20.3586 51.3792 20.8386C51.0892 21.3186 50.7092 21.6886 50.2292 21.9486L53.4092 27.8786ZM40.3792 27.8786H31.7692V13.3086H40.2192V15.2386H34.3192V19.3986H40.0792V21.3286H34.3192V25.9286H40.3792V27.8786ZM29.8192 13.3086L25.6592 27.8786H23.4892L19.3492 13.3086H21.8992L24.5892 23.2286L27.2792 13.3086H29.8292H29.8192ZM17.9592 27.8786H12.8692V25.9286H14.1492V15.2386H12.8692V13.3086H17.9592V15.2386H16.6792V25.9286H17.9592V27.8786ZM7.26921 18.9886V16.5986C7.26921 15.6886 6.90921 15.2386 6.17921 15.2386H3.21921V20.3686H6.17921C6.85921 20.3686 7.21921 19.9086 7.26921 18.9886ZM11.4092 27.8786H8.55921L5.64921 22.2986H3.20921V27.8786H0.689209V13.3086H6.69921C7.54921 13.3086 8.28921 13.6086 8.89921 14.2086C9.50921 14.8086 9.81921 15.5086 9.81921 16.2986V19.3086C9.81921 19.8486 9.66921 20.3586 9.38921 20.8386C9.09921 21.3186 8.71921 21.6886 8.23921 21.9486L11.4192 27.8786H11.4092Z" fill="black"/>
<path d="M2.58999 39.1914C2.58999 39.1914 1.73999 40.4414 0.93999 40.7214V45.4914C0.93999 45.4914 3.37999 46.5714 3.82999 47.1414L16.54 47.4814L17.45 48.9614L17.27 53.0214L16.8 53.5314H0.56999L0.0999902 54.0014L-0.0100098 58.8514C-0.0100098 58.8514 1.32999 61.4914 1.30999 62.2814C1.28999 63.0714 1.66999 73.6014 1.66999 73.6014L3.02999 75.1514C3.02999 75.1514 8.64999 73.5514 13.28 73.3814C17.92 73.2114 24.34 73.1014 24.34 73.1014C24.34 73.1014 24.85 72.2114 25.91 71.7414L26.04 65.9714L25.66 65.5914C25.66 65.5914 12.02 66.1914 10.15 66.7014L9.37999 65.9614V61.3414L9.86999 60.7914L24.42 60.7514C24.42 60.7514 24.99 59.6214 25.42 59.6214L25.61 42.8114L24.16 40.7714C24.16 40.7714 12.64 40.1514 2.55999 39.2014L2.58999 39.1914Z" fill="black"/>
<path d="M33.9803 40.832C33.9803 40.832 33.4603 41.702 32.5803 41.912C32.5803 41.912 32.2503 54.552 32.4603 56.922C32.6703 59.282 32.7603 74.182 32.5003 75.362C32.5003 75.362 34.4803 76.202 34.5203 76.382L35.7103 75.742C35.7103 75.742 36.4003 71.432 38.9303 69.592L39.9403 45.142L39.2203 43.092C39.2203 43.092 35.9603 42.202 33.9603 40.852L33.9803 40.832Z" fill="black"/>
<path d="M120.721 44.2402C120.691 43.6902 120.261 43.2502 119.711 43.2002C118.441 43.0902 116.311 42.8402 115.891 42.4202L102.101 41.9102C102.101 41.9102 100.481 43.7802 99.6306 44.2902C99.6306 44.2902 100.401 69.6502 100.231 70.3302L103.041 72.9702C103.041 72.9702 115.291 71.4402 117.931 71.6902L120.481 71.9102L122.181 69.1402L120.711 44.2402H120.721ZM113.341 65.9102L108.571 66.3402L108.061 65.9102L107.461 48.8102L108.481 47.9602L113.591 48.8102L113.931 64.8702L113.331 65.9102H113.341Z" fill="black"/>
<path d="M73.1102 44.2427C73.1102 44.2427 72.0402 43.4427 71.7502 42.7627C71.7502 42.7627 67.6102 42.3027 66.1402 41.2227C66.1402 41.2227 65.2202 42.3627 64.3102 42.4827L64.2502 49.6327L63.2902 50.9327L57.8902 51.1927L56.8302 50.0227L56.6602 44.0627C56.6602 44.0627 56.1902 43.8427 55.6202 42.8227C55.6202 42.8227 53.2602 43.2127 50.3102 41.6727C50.3102 41.6727 49.3902 42.9727 48.4802 43.3227C48.4802 43.3227 50.3502 70.2727 50.3002 70.7227L51.6002 72.8227C51.6002 72.8227 55.8002 72.3727 58.8002 72.5427C58.8002 72.5427 66.2302 72.2027 68.1602 72.5427C70.0902 72.8827 72.1302 72.5427 72.1302 72.5427L73.0902 71.0627C73.0902 71.0627 72.5802 46.2727 73.0902 44.2327L73.1102 44.2427ZM64.0302 66.1927L58.6702 66.6227L58.1602 66.1927L57.5602 58.3027L58.5802 57.4527L64.2802 58.1327L64.6202 65.1527L64.0202 66.1927H64.0302Z" fill="black"/>
<path d="M127.88 40.1797C127.88 40.1797 127.12 41.1097 125.84 42.0497C125.84 42.0497 127.91 70.5097 127.49 75.1897L129.96 75.7597C129.96 75.7597 131.41 71.6997 133.79 69.9197L134.56 58.8497C134.56 58.8497 140.52 57.5697 141.2 58.0797L142.48 57.0397L143.5 53.1397L141.71 51.6897C141.71 51.6897 135.92 53.4797 134.14 53.0497C134.14 53.0497 133.54 44.6297 134.14 42.9197C134.14 42.9197 133.16 41.6197 132.69 41.5797C132.22 41.5397 129.36 40.8897 127.89 40.1797H127.88Z" fill="black"/>
<path d="M90.4208 44.8017L89.5408 42.8217C89.5408 42.8217 86.2208 42.2017 84.1208 41.0117C84.1208 41.0117 83.6708 41.9217 82.8208 42.2017C82.8208 42.2017 83.1808 48.7417 83.5308 53.2717C81.2508 53.5817 76.6508 52.9317 76.6508 52.9317L75.1208 54.6417L76.7508 58.3317L77.8808 58.9817C78.0408 59.0717 78.2409 59.0817 78.4109 59.0217C79.4009 58.6917 82.6508 58.7717 84.1108 58.8217C84.5908 63.3117 85.3708 73.9717 85.2208 74.9917C85.2208 74.9917 87.2608 75.6717 87.3208 75.8417L88.4508 75.1017C88.4508 75.1017 88.7908 70.7517 91.1708 68.7117L90.4109 44.8017H90.4208Z" fill="black"/>
<path d="M168.1 53.7716L169.26 52.9916H171.98C171.98 52.9916 172.43 55.8616 172.68 58.1716C172.93 60.4816 172.68 64.9616 172.68 64.9616C172.68 64.9616 175.3 64.2116 175.65 64.4116C176 64.6116 177.21 59.1816 179.07 57.7216C179.07 57.7216 178.72 43.7916 179.27 40.3116C179.27 40.3116 174.39 38.9016 173.74 38.1016C173.74 38.1016 172.68 39.3616 172.03 39.5616C172.03 39.5616 171.78 46.2016 171.93 47.4116C171.93 47.4116 168.16 47.4616 167.6 47.5116L167.75 41.6216C167.75 41.6216 166.39 40.5616 165.44 39.7616C165.44 39.7616 153.44 39.9616 149.92 39.1616C149.92 39.1616 148.99 40.8716 148.39 41.0216C148.39 41.0216 149.19 44.2416 149.3 45.4216L150.21 46.1516C150.21 46.1516 156.8 45.5516 158.06 45.9016L159.87 47.0116C159.87 47.0116 160.12 50.3316 159.87 50.5816C159.87 50.5816 155.44 51.5416 150.41 51.3316C150.41 51.3316 149.98 52.8916 149.27 53.0916L150.91 57.4216L152.38 58.0016C154.25 57.8716 158.66 57.5516 159.32 57.7616L160.64 58.6016C160.64 58.6016 161.04 65.1616 160.78 65.9616H162.84C162.84 65.9616 166.48 63.1216 167.67 62.5916C167.67 62.5916 167.37 54.9716 168.12 53.7616L168.1 53.7716Z" fill="black"/>
<path d="M189.681 39.5116C189.681 39.5116 186.561 39.3616 184.151 38.1016C184.151 38.1016 183.141 39.7616 182.541 40.2616C182.541 40.2616 184.001 58.3716 183.141 61.9916C183.141 61.9916 183.541 64.5116 183.541 65.4116L185.051 65.9616C185.051 65.9616 187.771 60.5016 189.121 59.4316C189.121 59.4316 189.521 53.7316 189.371 50.7616C189.221 47.7916 189.671 39.4916 189.671 39.4916L189.681 39.5116Z" fill="black"/>
<path d="M178.06 72.5609C177.91 72.4309 177.8 72.2809 177.71 72.1109C177.39 71.5009 176.93 70.1209 177.28 69.4609L172.76 65.9609C172.76 65.9609 172.19 67.0609 171.32 67.6609C171.32 67.6609 168.43 73.5809 161.95 80.9909C161.84 81.2809 161.79 81.5709 161.65 81.8709L163.12 83.6509L164.48 84.0009C164.48 84.0009 168.01 82.2309 170.27 81.1809L174.05 76.9509C174.05 76.9509 179.46 81.7809 179.76 82.7409C179.76 82.7409 183.06 83.4009 183.58 83.5609L185.18 82.9509C185.18 82.9509 186.28 82.0109 186.84 81.3609C186.84 81.3609 186.2 80.0109 186.16 79.6809L178.05 72.5609H178.06Z" fill="black"/>
</g>
<defs>
<clipPath id="clip0_498_91">
<rect width="194.92" height="84" fill="white"/>
</clipPath>
</defs>
</svg>
